<svg width="16" height="14" viewBox="0 0 16 14" fill="none" xmlns="http://www.w3.org/2000/svg">
<path d="M1.68182 6H15.3182C15.499 6 15.6724 6.10536 15.8003 6.29289C15.9282 6.48043 16 6.73478 16 7C16 7.26522 15.9282 7.51957 15.8003 7.70711C15.6724 7.89464 15.499 8 15.3182 8H1.68182C1.50099 8 1.32757 7.89464 1.1997 7.70711C1.07183 7.51957 1 7.26522 1 7C1 6.73478 1.07183 6.48043 1.1997 6.29289C1.32757 6.10536 1.50099 6 1.68182 6Z" fill="black"/>
<path d="M1.75645 7L7.78678 12.8037C7.9233 12.9351 8 13.1133 8 13.2992C8 13.4851 7.9233 13.6633 7.78678 13.7947C7.65025 13.9262 7.46509 14 7.27201 14C7.07894 14 6.89377 13.9262 6.75724 13.7947L0.213604 7.49554C0.145895 7.43052 0.0921748 7.35329 0.0555211 7.26825C0.0188673 7.18322 0 7.09206 0 7C0 6.90794 0.0188673 6.81678 0.0555211 6.73175C0.0921748 6.64672 0.145895 6.56948 0.213604 6.50446L6.75724 0.205258C6.89377 0.0738335 7.07894 0 7.27201 0C7.46509 0 7.65025 0.0738335 7.78678 0.205258C7.9233 0.336683 8 0.514933 8 0.700796C8 0.886658 7.9233 1.06491 7.78678 1.19633L1.75645 7Z" fill="black"/>
</svg>
