<svg width="15" height="17" viewBox="0 0 15 17" fill="none" xmlns="http://www.w3.org/2000/svg">
<path d="M1.81698 6.96996C1.84548 6.61495 2.00664 6.28369 2.26839 6.04216C2.53013 5.80063 2.87325 5.66655 3.2294 5.66663H11.7705C12.1266 5.66655 12.4698 5.80063 12.7315 6.04216C12.9932 6.28369 13.1544 6.61495 13.1829 6.96996L13.7517 14.0533C13.7673 14.2482 13.7425 14.4443 13.6786 14.6291C13.6148 14.814 13.5134 14.9836 13.3807 15.1273C13.2481 15.271 13.0872 15.3857 12.9081 15.4642C12.729 15.5427 12.5355 15.5832 12.34 15.5833H2.6599C2.46435 15.5832 2.27092 15.5427 2.0918 15.4642C1.91269 15.3857 1.75176 15.271 1.61914 15.1273C1.48653 14.9836 1.38511 14.814 1.32127 14.6291C1.25743 14.4443 1.23255 14.2482 1.24819 14.0533L1.81698 6.96996V6.96996Z" stroke="black" stroke-linecap="round" stroke-linejoin="round"/>
<path d="M10.3332 7.79163V4.24996C10.3332 3.49851 10.0347 2.77784 9.50331 2.24649C8.97195 1.71514 8.25128 1.41663 7.49984 1.41663C6.74839 1.41663 6.02772 1.71514 5.49637 2.24649C4.96501 2.77784 4.6665 3.49851 4.6665 4.24996V7.79163" stroke="black" stroke-linecap="round" stroke-linejoin="round"/>
</svg>
