<svg width="29" height="32" viewBox="0 0 29 32" fill="none" xmlns="http://www.w3.org/2000/svg">
<path d="M8.8285 19.3819C8.8285 19.8021 8.66252 20.2051 8.36707 20.5022C8.07163 20.7994 7.67091 20.9663 7.25309 20.9663C6.83526 20.9663 6.43455 20.7994 6.1391 20.5022C5.84366 20.2051 5.67767 19.8021 5.67767 19.3819C5.67767 18.9617 5.84366 18.5587 6.1391 18.2615C6.43455 17.9644 6.83526 17.7975 7.25309 17.7975C7.67091 17.7975 8.07163 17.9644 8.36707 18.2615C8.66252 18.5587 8.8285 18.9617 8.8285 19.3819ZM21.7469 20.9663C22.1647 20.9663 22.5654 20.7994 22.8609 20.5022C23.1563 20.2051 23.3223 19.8021 23.3223 19.3819C23.3223 18.9617 23.1563 18.5587 22.8609 18.2615C22.5654 17.9644 22.1647 17.7975 21.7469 17.7975C21.3291 17.7975 20.9284 17.9644 20.6329 18.2615C20.3375 18.5587 20.1715 18.9617 20.1715 19.3819C20.1715 19.8021 20.3375 20.2051 20.6329 20.5022C20.9284 20.7994 21.3291 20.9663 21.7469 20.9663ZM10.719 21.9169C10.719 21.6648 10.8186 21.423 10.9959 21.2447C11.1731 21.0664 11.4135 20.9663 11.6642 20.9663H17.3357C17.5864 20.9663 17.8269 21.0664 18.0041 21.2447C18.1814 21.423 18.281 21.6648 18.281 21.9169C18.281 22.1691 18.1814 22.4109 18.0041 22.5891C17.8269 22.7674 17.5864 22.8676 17.3357 22.8676H11.6642C11.4135 22.8676 11.1731 22.7674 10.9959 22.5891C10.8186 22.4109 10.719 22.1691 10.719 21.9169ZM9.45867 3.53772V1.31953C9.45867 0.983364 9.59145 0.660962 9.82781 0.423254C10.0642 0.185545 10.3847 0.052002 10.719 0.052002H18.281C18.6152 0.052002 18.9358 0.185545 19.1722 0.423254C19.4085 0.660962 19.5413 0.983364 19.5413 1.31953V3.53772H19.7404C20.7944 3.53769 21.8181 3.89195 22.6488 4.5442C23.4796 5.19644 24.0698 6.10924 24.3255 7.13751L25.0842 10.1923H26.7882C27.0389 10.1923 27.2793 10.2924 27.4566 10.4707C27.6339 10.649 27.7335 10.8908 27.7335 11.1429C27.7335 11.395 27.6339 11.6368 27.4566 11.8151C27.2793 11.9934 27.0389 12.0936 26.7882 12.0936H25.5569L25.9098 13.5132C26.6198 13.7314 27.2414 14.1731 27.6831 14.7732C28.1248 15.3733 28.3634 16.1001 28.3636 16.8468V28.2546C28.3636 29.1791 27.9985 30.0657 27.3485 30.7194C26.6985 31.3731 25.8169 31.7403 24.8977 31.7403H23.6374C22.7182 31.7403 21.8366 31.3731 21.1866 30.7194C20.5366 30.0657 20.1715 29.1791 20.1715 28.2546V26.9871H8.8285V28.2546C8.8285 29.1791 8.46334 30.0657 7.81336 30.7194C7.16338 31.3731 6.28181 31.7403 5.36259 31.7403H4.10226C3.18305 31.7403 2.30148 31.3731 1.65149 30.7194C1.00151 30.0657 0.636353 29.1791 0.636353 28.2546V16.8468C0.636353 15.2751 1.66982 13.948 3.09022 13.5119L3.44311 12.0936H2.21177C1.96107 12.0936 1.72064 11.9934 1.54337 11.8151C1.36611 11.6368 1.26652 11.395 1.26652 11.1429C1.26652 10.8908 1.36611 10.649 1.54337 10.4707C1.72064 10.2924 1.96107 10.1923 2.21177 10.1923H3.91573L4.67445 7.13751C4.93021 6.10924 5.52037 5.19644 6.35113 4.5442C7.1819 3.89195 8.2056 3.53769 9.25953 3.53772H9.45867ZM11.3492 3.53772H17.6508V1.9533H11.3492V3.53772ZM9.25953 5.43901C8.62735 5.43923 8.01336 5.65189 7.5151 6.04321C7.01685 6.43454 6.6629 6.9821 6.50949 7.59889L5.0765 13.3611H23.9235L22.4917 7.59889C22.3383 6.98188 21.9841 6.43418 21.4856 6.04282C20.9871 5.65147 20.3728 5.43894 19.7404 5.43901H9.25953ZM22.062 26.9871V28.2546C22.062 29.1292 22.7678 29.839 23.6374 29.839H24.8977C25.7673 29.839 26.4731 29.1292 26.4731 28.2546V26.9871H22.062ZM6.93801 28.2546V26.9871H2.52685V28.2546C2.52685 29.1292 3.23263 29.839 4.10226 29.839H5.36259C6.23222 29.839 6.93801 29.1292 6.93801 28.2546ZM24.8977 15.2624H4.10226C3.23263 15.2624 2.52685 15.9722 2.52685 16.8468V25.0858H26.4731V16.8468C26.4731 15.9722 25.7673 15.2624 24.8977 15.2624Z" fill="white"/>
</svg>
