<svg width="159" height="141" viewBox="0 0 159 141" fill="none" xmlns="http://www.w3.org/2000/svg">
<g clip-path="url(#clip0_1_1183)">
<path d="M151.957 140.813L151.745 140.733C151.698 140.715 147.068 138.936 144.899 134.902C142.73 130.868 143.792 126.01 143.803 125.962L143.853 125.74L144.064 125.82C144.111 125.838 148.741 127.617 150.91 131.651C153.08 135.685 152.018 140.543 152.007 140.591L151.957 140.813ZM145.246 134.714C147.08 138.125 150.739 139.874 151.666 140.273C151.843 139.276 152.395 135.246 150.563 131.839C148.731 128.432 145.071 126.68 144.143 126.28C143.967 127.277 143.414 131.307 145.246 134.714Z" fill="#3F3D56"/>
<path d="M146.557 133.487C150.455 135.839 151.956 140.511 151.956 140.511C151.956 140.511 147.137 141.369 143.239 139.017C139.341 136.665 137.839 131.993 137.839 131.993C137.839 131.993 142.658 131.135 146.557 133.487Z" fill="#FF455B"/>
<path d="M83.7989 75.5662C83.9878 75.2731 84.2364 75.0234 84.5282 74.8335C84.8201 74.6435 85.1487 74.5175 85.4925 74.4638C85.8363 74.41 86.1876 74.4297 86.5233 74.5216C86.859 74.6135 87.1715 74.7755 87.4404 74.997C87.5252 75.0674 87.605 75.1438 87.6792 75.2255L97.387 73.8081L97.9273 66.4872C97.9687 65.9255 98.2308 65.4034 98.6561 65.0356C99.0813 64.6678 99.6349 64.4844 100.195 64.5259C100.755 64.5674 101.276 64.8303 101.642 65.2568C102.009 65.6833 102.192 66.2384 102.151 66.8C102.15 66.813 102.149 66.8261 102.147 66.8391L101.201 77.1117L101.196 77.1346C101.073 77.5295 100.826 77.874 100.493 78.1171C100.159 78.3601 99.7557 78.4888 99.3431 78.4839L87.9246 78.2862C87.8803 78.3541 87.8325 78.4196 87.7814 78.4824C87.5605 78.7521 87.2853 78.9719 86.9738 79.1274C86.6623 79.283 86.3215 79.3708 85.9738 79.385C85.6262 79.3993 85.2794 79.3397 84.9563 79.2102C84.6331 79.0807 84.3409 78.8842 84.0988 78.6336C84.0496 78.5831 84.0031 78.5309 83.9591 78.4771C83.63 78.0707 83.4373 77.5704 83.4086 77.0477C83.3798 76.5249 83.5164 76.0064 83.7989 75.5662Z" fill="#FFB7B7"/>
<path d="M103.371 137.986L100.602 137.986L99.2848 127.276L103.371 127.276L103.371 137.986Z" fill="#FFB7B7"/>
<path d="M104.077 140.678L95.1492 140.677V140.564C95.1492 139.64 95.5154 138.754 96.167 138.1C96.8187 137.447 97.7025 137.079 98.6241 137.079H98.6243L104.077 137.08L104.077 140.678Z" fill="#2F2E41"/>
<path d="M122.718 135.469L120.098 136.365L115.403 126.655L119.271 125.332L122.718 135.469Z" fill="#FFB7B7"/>
<path d="M124.253 137.788L115.803 140.678L115.767 140.571C115.469 139.696 115.531 138.739 115.937 137.909C116.343 137.079 117.062 136.446 117.934 136.147L117.934 136.147L123.095 134.382L124.253 137.788Z" fill="#2F2E41"/>
<path d="M106.42 44.3401C106.42 44.3401 103.664 43.4274 101.892 47.0783C100.121 50.7293 97.3649 54.7453 97.3649 54.7453L98.9396 55.1104C98.9396 55.1104 99.3333 52.5547 100.318 52.1896L99.9239 55.4755C99.9239 55.4755 111.735 59.309 117.05 55.1104L116.853 53.8326C116.853 53.8326 117.64 54.0151 117.64 55.1104L118.231 54.5628C118.231 54.5628 117.64 53.4675 115.868 52.0071C114.706 51.0486 114.306 49.225 114.169 48.0848C114.06 47.1196 113.647 46.2142 112.99 45.5001C111.813 44.2347 109.668 42.8899 106.42 44.3401Z" fill="#2F2E41"/>
<path d="M107.436 57.0959C110.215 57.0959 112.469 54.8359 112.469 52.0481C112.469 49.2602 110.215 47.0002 107.436 47.0002C104.656 47.0002 102.402 49.2602 102.402 52.0481C102.402 54.8359 104.656 57.0959 107.436 57.0959Z" fill="#FFB7B7"/>
<path d="M100.724 61.2525L99.8092 60.9465C99.8092 60.9465 97.9789 61.7114 97.9789 63.088C97.9789 64.4647 97.6738 69.9714 97.6738 69.9714L101.792 70.4303L100.724 61.2525Z" fill="#CBCBCB"/>
<path d="M117.104 91.3403C116.725 90.9137 116.51 90.3647 116.5 89.7931C116.49 89.2214 116.685 88.6652 117.05 88.2256L114.481 66.6482C114.455 66.1394 114.633 65.6414 114.973 65.2634C115.314 64.8854 115.79 64.6584 116.297 64.6322C116.805 64.606 117.302 64.7827 117.679 65.1235C118.057 65.4644 118.284 65.9416 118.311 66.4503C118.312 66.4573 118.312 66.4644 118.312 66.4714L120.611 88.0717C120.694 88.1555 120.771 88.2457 120.84 88.3414C121.025 88.597 121.157 88.8866 121.23 89.1936C121.302 89.5005 121.314 89.8188 121.264 90.1303C121.214 90.4418 121.104 90.7404 120.939 91.009C120.774 91.2777 120.558 91.5111 120.303 91.696C120.276 91.7151 120.25 91.7337 120.222 91.7518C119.927 91.9477 119.593 92.0756 119.242 92.1264C118.892 92.1772 118.535 92.1496 118.196 92.0456C117.774 91.9172 117.396 91.6729 117.104 91.3403Z" fill="#FFB7B7"/>
<path d="M114.751 69.9714L118.869 69.5126C118.869 69.5126 118.564 64.0058 118.564 62.6292C118.564 61.2525 116.734 60.4877 116.734 60.4877L115.819 60.7936L114.751 69.9714Z" fill="#CBCBCB"/>
<path d="M101.335 77.6118C101.335 77.6118 97.8264 84.0442 97.8264 91.8453C97.8264 99.6465 97.5214 135.44 97.5214 135.44C97.5214 135.44 102.097 137.582 104.843 134.981L107.283 95.3635L116.892 134.216C116.892 134.216 121.468 135.134 123.603 133.605L119.485 106.53C119.485 106.53 117.807 81.1378 113.232 79.3023C108.656 77.4667 101.335 77.6118 101.335 77.6118Z" fill="#2F2E41"/>
<path d="M101.997 52.0801C103.778 50.7869 105.221 49.2973 106.175 47.5254C106.175 47.5254 109.445 51.1692 111.443 51.3514C113.442 51.5335 111.625 46.9788 111.625 46.9788L107.992 46.0679L104.54 46.4323L101.815 48.2541L101.997 52.0801Z" fill="#2F2E41"/>
<path d="M112.469 59.5699C112.469 59.5699 112.614 59.4917 103.928 59.8091L100.292 60.8131L99.8092 60.9466C99.8092 60.9466 100.267 70.1244 101.487 71.8071C102.707 73.4897 102.402 74.4074 102.097 74.5604C101.792 74.7134 101.029 74.4074 101.487 75.1723C101.945 75.9371 102.555 75.4782 101.945 75.9371C101.334 76.396 101.029 78.0786 101.029 78.0786L114.452 79.9141C114.452 79.9141 114.909 73.9485 116.13 70.8893C117.35 67.83 117.655 66.6063 117.655 66.6063L116.74 60.4877L112.469 59.5699Z" fill="#CBCBCB"/>
<path d="M86.9503 33.4785H86.1784V12.2731C86.1785 9.01807 84.8891 5.89637 82.594 3.59471C80.299 1.29306 77.1862 5.24697e-06 73.9405 0L29.1424 0C25.8966 -8.91975e-06 22.7838 1.29304 20.4888 3.59468C18.1937 5.89632 16.9043 9.01802 16.9043 12.273V128.607C16.9043 131.862 18.1937 134.984 20.4887 137.286C22.7838 139.587 25.8966 140.88 29.1423 140.88H73.9404C75.5475 140.88 77.1389 140.563 78.6237 139.946C80.1085 139.329 81.4576 138.425 82.594 137.286C83.7304 136.146 84.6319 134.793 85.2469 133.304C85.8619 131.815 86.1784 130.219 86.1784 128.607V48.5728H86.9503L86.9503 33.4785Z" fill="#3F3D56"/>
<path d="M83.5737 12.3593V128.523C83.5748 129.725 83.3397 130.916 82.8818 132.028C82.4239 133.139 81.7522 134.149 80.905 135C80.0578 135.851 79.0518 136.527 77.9443 136.988C76.8369 137.449 75.6497 137.687 74.4505 137.688H29.421C26.9988 137.69 24.6751 136.727 22.9611 135.01C21.2471 133.294 20.2832 130.965 20.2815 128.535V12.3593C20.2807 11.1565 20.516 9.96532 20.9742 8.85374C21.4324 7.74216 22.1045 6.73198 22.952 5.88086C23.7995 5.02975 24.8058 4.35437 25.9136 3.89329C27.0213 3.43221 28.2088 3.19446 29.4082 3.19361H34.8815C34.6126 3.85478 34.5099 4.57213 34.5826 5.28245C34.6553 5.99278 34.9011 6.67428 35.2983 7.2669C35.6955 7.85952 36.2319 8.34508 36.8603 8.68079C37.4887 9.0165 38.1898 9.19205 38.9019 9.19199H64.5667C65.2788 9.19205 65.9799 9.0165 66.6083 8.68079C67.2367 8.34508 67.7731 7.85952 68.1703 7.2669C68.5675 6.67428 68.8133 5.99278 68.886 5.28245C68.9587 4.57213 68.856 3.85478 68.5871 3.19361H74.4342C76.856 3.19143 79.1795 4.15415 80.8934 5.86997C82.6074 7.58579 83.5716 9.91418 83.5738 12.3429V12.3593L83.5737 12.3593Z" fill="white"/>
<path d="M83.5738 29.5453V25.5886H77.6025V3.75944C76.5882 3.38381 75.5155 3.19221 74.4343 3.19361H73.6571V25.5886H52.9437V9.19201H48.9982V25.5886H31.6384V3.19363H29.4212C28.8412 3.19272 28.2625 3.24771 27.693 3.35783V25.5886H20.2816V29.5453H27.693V38.6973L20.2817 42.9883V47.5584L27.693 43.2673V70.4973H20.2816V74.454H27.693V113.823H20.2816V117.78H27.693V137.524C28.2625 137.634 28.8412 137.689 29.4212 137.688H31.6384V117.78H48.9982V137.688H52.9437V117.78H73.6571V137.688H74.4343C75.5155 137.69 76.5882 137.498 77.6025 137.122V117.78H83.5738V113.823H77.6025V96.6116H83.5206V92.6549H77.6025V74.4541H83.5738V70.4973H77.6025V46.3614H83.5738V42.4047H77.6025V29.5454L83.5738 29.5453ZM43.5005 29.5453L43.5004 29.5454L31.6385 36.4143L31.6384 36.4143V29.5453H43.5005ZM31.6384 40.9823L31.6385 40.9823L48.9982 30.9303V70.4973H31.6384V40.9823ZM31.6384 113.823V74.454H48.9982V113.823H31.6384ZM73.657 113.823H52.9436V96.6116H73.657V113.823ZM73.657 92.6549H52.9436V74.454H73.657V92.6549ZM73.657 70.4973H52.9436V46.3614H73.657V70.4973ZM73.657 42.4047H52.9436V29.5453H73.657V42.4047Z" fill="#E5E5E5"/>
<path d="M86.8742 42.4778C86.8742 55.0429 64.1881 83.0341 64.1881 83.0341C64.1881 83.0341 41.502 55.0429 41.502 42.4778C41.502 36.4438 43.8921 30.657 48.1466 26.3903C52.401 22.1237 58.1713 19.7267 64.1881 19.7267C70.2048 19.7267 75.9751 22.1237 80.2296 26.3903C84.484 30.657 86.8742 36.4438 86.8742 42.4778Z" fill="#FF455B"/>
<path d="M77.6027 41.4886C77.6027 44.1493 76.816 46.7503 75.342 48.9626C73.868 51.1749 71.7729 52.8992 69.3218 53.9174C66.8706 54.9356 64.1734 55.202 61.5713 54.6829C58.9692 54.1638 56.579 52.8826 54.7029 51.0012C52.8269 49.1198 51.5493 46.7227 51.0317 44.1131C50.5141 41.5035 50.7797 38.7986 51.795 36.3404C52.8103 33.8822 54.5297 31.7812 56.7357 30.303C58.9417 28.8248 61.5352 28.0358 64.1883 28.0358C65.9491 28.035 67.6928 28.382 69.3199 29.057C70.947 29.732 72.4255 30.7218 73.6712 31.9698C74.9168 33.2179 75.9051 34.6998 76.5797 36.3309C77.2543 37.962 77.6019 39.7104 77.6027 41.4762V41.4886Z" fill="white"/>
<path d="M64.1416 46.7992C66.9016 46.7992 69.1391 44.5553 69.1391 41.7874C69.1391 39.0194 66.9016 36.7755 64.1416 36.7755C61.3815 36.7755 59.144 39.0194 59.144 41.7874C59.144 44.5553 61.3815 46.7992 64.1416 46.7992Z" fill="#FF455B"/>
<path d="M71.3945 53.2341C69.2402 54.608 66.74 55.3375 64.187 55.3371C61.634 55.3368 59.1339 54.6066 56.98 53.2322C57.4279 51.6618 58.3737 50.2804 59.6743 49.2971C60.9748 48.3138 62.5593 47.782 64.188 47.7822C65.8167 47.7825 67.401 48.3147 68.7013 49.2983C70.0016 50.282 70.947 51.6636 71.3945 53.2341Z" fill="#FF455B"/>
<path d="M64.188 99.4545C67.5654 99.4545 70.3034 96.7087 70.3034 93.3216C70.3034 89.9345 67.5654 87.1887 64.188 87.1887C60.8106 87.1887 58.0726 89.9345 58.0726 93.3216C58.0726 96.7087 60.8106 99.4545 64.188 99.4545Z" fill="#FF455B"/>
<path d="M158.803 141H0.19727C0.144951 141 0.0947746 140.979 0.0577792 140.942C0.0207838 140.905 0 140.855 0 140.802C0 140.75 0.0207838 140.699 0.0577792 140.662C0.0947746 140.625 0.144951 140.604 0.19727 140.604H158.803C158.855 140.604 158.905 140.625 158.942 140.662C158.979 140.699 159 140.75 159 140.802C159 140.855 158.979 140.905 158.942 140.942C158.905 140.979 158.855 141 158.803 141Z" fill="#CBCBCB"/>
</g>
<defs>
<clipPath id="clip0_1_1183">
<rect width="159" height="141" fill="white"/>
</clipPath>
</defs>
</svg>
