<svg width="50" height="50" viewBox="0 0 50 50" fill="none" xmlns="http://www.w3.org/2000/svg">
<circle cx="25" cy="25" r="25" fill="#252525" fill-opacity="0.2"/>
<circle cx="24.5" cy="24.5" r="17.5" fill="#252525"/>
<path d="M25.6791 25.1642L19.4024 26.21C19.3303 26.222 19.2626 26.2529 19.2061 26.2994C19.1496 26.3459 19.1064 26.4065 19.0808 26.475L16.9166 32.2733C16.7099 32.8067 17.2674 33.315 17.7791 33.0583L32.7791 25.5583C32.8828 25.5064 32.97 25.4266 33.0309 25.3279C33.0918 25.2292 33.1241 25.1156 33.1241 24.9996C33.1241 24.8836 33.0918 24.7699 33.0309 24.6713C32.97 24.5726 32.8828 24.4928 32.7791 24.4408L17.7791 16.9408C17.2674 16.685 16.7099 17.1933 16.9166 17.7258L19.0816 23.5242C19.1072 23.5927 19.1505 23.6533 19.2069 23.6998C19.2634 23.7463 19.3311 23.7771 19.4033 23.7892L25.6799 24.835C25.7191 24.8413 25.7547 24.8613 25.7805 24.8914C25.8062 24.9216 25.8203 24.9599 25.8203 24.9996C25.8203 25.0392 25.8062 25.0776 25.7805 25.1077C25.7547 25.1379 25.7191 25.1579 25.6799 25.1642H25.6791Z" fill="white"/>
<path d="M19 23L27 23.6667V26.3333L19 27V23Z" fill="white"/>
</svg>
