<svg width="21" height="21" viewBox="0 0 21 21" fill="none" xmlns="http://www.w3.org/2000/svg">
<path d="M3.9375 19.6875H11.8125C12.1605 19.6872 12.4941 19.5488 12.7402 19.3027C12.9863 19.0566 13.1247 18.723 13.125 18.375V16.4062H11.8125V18.375H3.9375V2.625H11.8125V4.59375H13.125V2.625C13.1247 2.27701 12.9863 1.94337 12.7402 1.69731C12.4941 1.45124 12.1605 1.31285 11.8125 1.3125H3.9375C3.58951 1.31285 3.25587 1.45124 3.00981 1.69731C2.76374 1.94337 2.62535 2.27701 2.625 2.625V18.375C2.62535 18.723 2.76374 19.0566 3.00981 19.3027C3.25587 19.5488 3.58951 19.6872 3.9375 19.6875Z" fill="#FF455B"/>
<path d="M13.5096 13.5096L15.8629 11.1562H6.5625V9.84375H15.8629L13.5096 7.49044L14.4375 6.5625L18.375 10.5L14.4375 14.4375L13.5096 13.5096Z" fill="#FF455B"/>
</svg>
