<svg width="16" height="16" viewBox="0 0 16 16" fill="none" xmlns="http://www.w3.org/2000/svg">
<path d="M2.16667 15.5H13.8333C14.2754 15.5 14.6993 15.3244 15.0118 15.0118C15.3244 14.6993 15.5 14.2754 15.5 13.8333V2.16667C15.5 1.72464 15.3244 1.30072 15.0118 0.988155C14.6993 0.675595 14.2754 0.5 13.8333 0.5H2.16667C1.72464 0.5 1.30072 0.675595 0.988155 0.988155C0.675595 1.30072 0.5 1.72464 0.5 2.16667V13.8333C0.5 14.2754 0.675595 14.6993 0.988155 15.0118C1.30072 15.3244 1.72464 15.5 2.16667 15.5ZM8 3.83333L12.1667 8H8.83333V12.1667H7.16667V8H3.83333L8 3.83333Z" fill="#2CC813"/>
</svg>
