<svg width="18" height="18" viewBox="0 0 18 18" fill="none" xmlns="http://www.w3.org/2000/svg">
<path d="M17.8699 9.02045L9.40087 0.171546C9.29508 0.061672 9.15198 0 9.00282 0C8.85366 0 8.71056 0.061672 8.60478 0.171546L0.135762 9.02045C0.0432658 9.13331 -0.00506751 9.27847 0.000421069 9.42694C0.00590964 9.57541 0.0648158 9.71625 0.165368 9.82132C0.265921 9.92638 0.400713 9.98793 0.54281 9.99366C0.684906 9.9994 0.823841 9.9489 0.93185 9.85225L9 1.42219L17.0681 9.85815C17.1762 9.95479 17.3151 10.0053 17.4572 9.99956C17.5993 9.99383 17.7341 9.93228 17.8346 9.82722C17.9352 9.72215 17.9941 9.58131 17.9996 9.43284C18.0051 9.28437 17.9567 9.1392 17.8642 9.02635L17.8699 9.02045Z" fill="#A7A7A7"/>
<path d="M14.8333 16.8916H11.9167V11.3498H6.08333V16.8916H3.16667V9.133L2 10.2414V16.8916C2 17.1856 2.12292 17.4675 2.34171 17.6754C2.5605 17.8832 2.85725 18 3.16667 18H7.25V12.4581H10.75V18H14.8333C15.1428 18 15.4395 17.8832 15.6583 17.6754C15.8771 17.4675 16 17.1856 16 16.8916V10.1084L14.8333 9V16.8916Z" fill="#A7A7A7"/>
</svg>
