<svg width="22" height="22" viewBox="0 0 22 22" fill="none" xmlns="http://www.w3.org/2000/svg">
<path d="M13.75 1.03125H0.6875V14.0938H8.25V21.3125H21.3125V8.25H13.75V1.03125ZM6.37248 4.125L4.21493 10.2824H5.67188L6.02276 9.28125H8.25V12.7188H2.0625V2.40625H12.375V8.25H9.51036L8.06523 4.125H6.37248ZM7.93298 7.90625H6.50452L7.21875 5.8679L7.93298 7.90625ZM19.9375 9.625V19.9375H9.625V9.625H19.9375Z" fill="black"/>
<path d="M13.6397 15.8331C13.7712 16.0443 13.916 16.247 14.0732 16.4398C13.5747 16.7087 13.0087 16.8433 12.375 16.8438V18.2188C13.4123 18.2188 14.3391 17.9434 15.125 17.4099C15.9109 17.9434 16.8377 18.2188 17.875 18.2188V16.8438C17.2426 16.8438 16.6766 16.709 16.1769 16.4395C16.3341 16.2468 16.4789 16.0442 16.6103 15.8331C17.0066 15.1889 17.2981 14.4857 17.4738 13.75H18.2188V12.375H15.8125V11.3438H14.4375V12.375H12.0312V13.75H12.7762C12.9519 14.4857 13.2434 15.1889 13.6397 15.8331ZM16.0501 13.75C15.9079 14.2259 15.7042 14.6812 15.4443 15.1044C15.3471 15.2604 15.2405 15.4103 15.125 15.5533C15.0179 15.4209 14.9185 15.2824 14.8272 15.1386C14.5567 14.706 14.3457 14.2389 14.1997 13.75H16.0501Z" fill="black"/>
</svg>
