<svg width="12" height="16" viewBox="0 0 12 16" fill="none" xmlns="http://www.w3.org/2000/svg">
<path d="M6 8.66675C7.10457 8.66675 8 7.77132 8 6.66675C8 5.56218 7.10457 4.66675 6 4.66675C4.89543 4.66675 4 5.56218 4 6.66675C4 7.77132 4.89543 8.66675 6 8.66675Z" stroke="#9B9B9B" stroke-linecap="round" stroke-linejoin="round"/>
<path d="M6.00008 1.33337C4.58559 1.33337 3.22904 1.89528 2.22885 2.89547C1.22865 3.89567 0.666748 5.25222 0.666748 6.66671C0.666748 7.92804 0.934748 8.75337 1.66675 9.66671L6.00008 14.6667L10.3334 9.66671C11.0654 8.75337 11.3334 7.92804 11.3334 6.66671C11.3334 5.25222 10.7715 3.89567 9.77132 2.89547C8.77112 1.89528 7.41457 1.33337 6.00008 1.33337V1.33337Z" stroke="#9B9B9B" stroke-linecap="round" stroke-linejoin="round"/>
</svg>
