<svg width="15" height="16" viewBox="0 0 15 16" fill="none" xmlns="http://www.w3.org/2000/svg">
<path d="M12.4583 6.08337H2.54167C1.75926 6.08337 1.125 6.71764 1.125 7.50004V13.1667C1.125 13.9491 1.75926 14.5834 2.54167 14.5834H12.4583C13.2407 14.5834 13.875 13.9491 13.875 13.1667V7.50004C13.875 6.71764 13.2407 6.08337 12.4583 6.08337Z" stroke="#9B9B9B" stroke-linecap="round" stroke-linejoin="round"/>
<path d="M3.25 3.25C3.25 2.68641 3.47388 2.14591 3.8724 1.7474C4.27091 1.34888 4.81141 1.125 5.375 1.125H9.625C10.1886 1.125 10.7291 1.34888 11.1276 1.7474C11.5261 2.14591 11.75 2.68641 11.75 3.25V6.08333H3.25V3.25Z" stroke="#9B9B9B" stroke-linecap="round" stroke-linejoin="round"/>
</svg>
