<svg width="204" height="52" viewBox="0 0 204 52" fill="none" xmlns="http://www.w3.org/2000/svg">
<path d="M85.9629 26.7422V38.1445C85.5391 38.7051 84.876 39.3203 83.9736 39.9902C83.085 40.6465 81.9023 41.2139 80.4258 41.6924C78.9492 42.1709 77.1104 42.4102 74.9092 42.4102C73.0361 42.4102 71.3203 42.0957 69.7617 41.4668C68.2031 40.8242 66.8564 39.8877 65.7217 38.6572C64.6006 37.4268 63.7324 35.9297 63.1172 34.166C62.502 32.3887 62.1943 30.3652 62.1943 28.0957V26.0244C62.1943 23.7686 62.4746 21.7588 63.0352 19.9951C63.6094 18.2178 64.4297 16.7139 65.4961 15.4834C66.5625 14.2529 67.8477 13.3232 69.3516 12.6943C70.8691 12.0518 72.585 11.7305 74.499 11.7305C76.9463 11.7305 78.9697 12.1406 80.5693 12.9609C82.1826 13.7676 83.4268 14.8887 84.3018 16.3242C85.1768 17.7598 85.7305 19.4004 85.9629 21.2461H80.918C80.7539 20.207 80.4326 19.2773 79.9541 18.457C79.4893 17.6367 78.8193 16.9941 77.9443 16.5293C77.083 16.0508 75.9619 15.8115 74.5811 15.8115C73.3916 15.8115 72.3457 16.0371 71.4434 16.4883C70.541 16.9395 69.7891 17.6025 69.1875 18.4775C68.5996 19.3525 68.1553 20.4189 67.8545 21.6768C67.5537 22.9346 67.4033 24.3701 67.4033 25.9834V28.0957C67.4033 29.7363 67.5742 31.1924 67.916 32.4639C68.2715 33.7354 68.7773 34.8086 69.4336 35.6836C70.1035 36.5586 70.917 37.2217 71.874 37.6729C72.8311 38.1104 73.9111 38.3291 75.1143 38.3291C76.29 38.3291 77.2539 38.2334 78.0059 38.042C78.7578 37.8369 79.3525 37.5977 79.79 37.3242C80.2412 37.0371 80.5898 36.7637 80.8359 36.5039V30.5771H74.6221V26.7422H85.9629ZM103.46 12.1406V42H98.3127V12.1406H103.46ZM134.862 37.9189V42H119.871V37.9189H134.862ZM121.306 12.1406V42H116.159V12.1406H121.306ZM157.178 16.1191L148.257 42H142.864L154.102 12.1406H157.547L157.178 16.1191ZM164.643 42L155.702 16.1191L155.312 12.1406H158.778L170.057 42H164.643ZM164.213 30.9258V35.0068H147.97V30.9258H164.213ZM179.7 12.1406H190.262C192.531 12.1406 194.466 12.4824 196.065 13.166C197.665 13.8496 198.888 14.8613 199.736 16.2012C200.597 17.5273 201.028 19.168 201.028 21.123C201.028 22.6133 200.755 23.9258 200.208 25.0605C199.661 26.1953 198.888 27.1523 197.89 27.9316C196.892 28.6973 195.703 29.292 194.322 29.7158L192.763 30.4746H183.268L183.227 26.3936H190.344C191.574 26.3936 192.599 26.1748 193.42 25.7373C194.24 25.2998 194.855 24.7051 195.265 23.9531C195.689 23.1875 195.901 22.3262 195.901 21.3691C195.901 20.3301 195.696 19.4277 195.286 18.6621C194.889 17.8828 194.274 17.2881 193.44 16.8779C192.606 16.4541 191.547 16.2422 190.262 16.2422H184.847V42H179.7V12.1406ZM196.742 42L189.728 28.5879L195.122 28.5674L202.238 41.7334V42H196.742Z" fill="white"/>
<path d="M13.5909 31.72C13.5909 32.4096 13.3155 33.0709 12.8254 33.5585C12.3352 34.0461 11.6705 34.32 10.9773 34.32C10.2841 34.32 9.6193 34.0461 9.12915 33.5585C8.639 33.0709 8.36364 32.4096 8.36364 31.72C8.36364 31.0304 8.639 30.3691 9.12915 29.8815C9.6193 29.3939 10.2841 29.12 10.9773 29.12C11.6705 29.12 12.3352 29.3939 12.8254 29.8815C13.3155 30.3691 13.5909 31.0304 13.5909 31.72ZM35.0227 34.32C35.7159 34.32 36.3807 34.0461 36.8708 33.5585C37.361 33.0709 37.6364 32.4096 37.6364 31.72C37.6364 31.0304 37.361 30.3691 36.8708 29.8815C36.3807 29.3939 35.7159 29.12 35.0227 29.12C34.3295 29.12 33.6648 29.3939 33.1746 29.8815C32.6845 30.3691 32.4091 31.0304 32.4091 31.72C32.4091 32.4096 32.6845 33.0709 33.1746 33.5585C33.6648 34.0461 34.3295 34.32 35.0227 34.32ZM16.7273 35.88C16.7273 35.4663 16.8925 35.0695 17.1866 34.7769C17.4807 34.4844 17.8795 34.32 18.2955 34.32H27.7045C28.1205 34.32 28.5193 34.4844 28.8134 34.7769C29.1075 35.0695 29.2727 35.4663 29.2727 35.88C29.2727 36.2937 29.1075 36.6905 28.8134 36.9831C28.5193 37.2756 28.1205 37.44 27.7045 37.44H18.2955C17.8795 37.44 17.4807 37.2756 17.1866 36.9831C16.8925 36.6905 16.7273 36.2937 16.7273 35.88ZM14.6364 5.72V2.08C14.6364 1.52835 14.8567 0.999293 15.2488 0.609218C15.6409 0.219142 16.1727 0 16.7273 0H29.2727C29.8273 0 30.3591 0.219142 30.7512 0.609218C31.1433 0.999293 31.3636 1.52835 31.3636 2.08V5.72H31.694C33.4425 5.71996 35.1408 6.3013 36.5191 7.37162C37.8973 8.44194 38.8764 9.93982 39.3007 11.6272L40.5595 16.64H43.3864C43.8023 16.64 44.2011 16.8044 44.4952 17.0969C44.7893 17.3895 44.9545 17.7863 44.9545 18.2C44.9545 18.6137 44.7893 19.0105 44.4952 19.3031C44.2011 19.5956 43.8023 19.76 43.3864 19.76H41.3435L41.929 22.0896C43.1069 22.4477 44.1382 23.1724 44.871 24.1572C45.6039 25.142 45.9996 26.3347 46 27.56V46.28C46 47.797 45.3942 49.2519 44.3159 50.3246C43.2375 51.3974 41.775 52 40.25 52H38.1591C36.6341 52 35.1716 51.3974 34.0932 50.3246C33.0149 49.2519 32.4091 47.797 32.4091 46.28V44.2H13.5909V46.28C13.5909 47.797 12.9851 49.2519 11.9068 50.3246C10.8284 51.3974 9.3659 52 7.84091 52H5.75C4.22501 52 2.76247 51.3974 1.68414 50.3246C0.605802 49.2519 0 47.797 0 46.28V27.56C0 24.9808 1.71455 22.803 4.071 22.0875L4.65646 19.76H2.61364C2.19773 19.76 1.79886 19.5956 1.50476 19.3031C1.21067 19.0105 1.04545 18.6137 1.04545 18.2C1.04545 17.7863 1.21067 17.3895 1.50476 17.0969C1.79886 16.8044 2.19773 16.64 2.61364 16.64H5.44055L6.69927 11.6272C7.12357 9.93982 8.10266 8.44194 9.48091 7.37162C10.8592 6.3013 12.5575 5.71996 14.306 5.72H14.6364ZM17.7727 5.72H28.2273V3.12H17.7727V5.72ZM14.306 8.84C13.2572 8.84035 12.2386 9.18932 11.412 9.83148C10.5854 10.4736 9.99815 11.3722 9.74364 12.3843L7.36627 21.84H38.6337L36.2585 12.3843C36.0039 11.3718 35.4163 10.473 34.5893 9.83084C33.7623 9.18864 32.7432 8.83988 31.694 8.84H14.306ZM35.5455 44.2V46.28C35.5455 47.7152 36.7164 48.88 38.1591 48.88H40.25C41.6927 48.88 42.8636 47.7152 42.8636 46.28V44.2H35.5455ZM10.4545 46.28V44.2H3.13636V46.28C3.13636 47.7152 4.30727 48.88 5.75 48.88H7.84091C9.28364 48.88 10.4545 47.7152 10.4545 46.28ZM40.25 24.96H5.75C4.30727 24.96 3.13636 26.1248 3.13636 27.56V41.08H42.8636V27.56C42.8636 26.1248 41.6927 24.96 40.25 24.96Z" fill="white"/>
</svg>
