<svg width="25" height="24" viewBox="0 0 25 24" fill="none" xmlns="http://www.w3.org/2000/svg">
<path d="M8.05998 10.9999C8.05998 11.4021 7.90023 11.7878 7.61587 12.0721C7.33151 12.3565 6.94583 12.5163 6.54368 12.5163C6.14153 12.5163 5.75585 12.3565 5.47149 12.0721C5.18713 11.7878 5.02737 11.4021 5.02737 10.9999C5.02737 10.5978 5.18713 10.2121 5.47149 9.92776C5.75585 9.6434 6.14153 9.48364 6.54368 9.48364C6.94583 9.48364 7.33151 9.6434 7.61587 9.92776C7.90023 10.2121 8.05998 10.5978 8.05998 10.9999V10.9999ZM14.1252 10.9999C14.1252 11.4021 13.9654 11.7878 13.6811 12.0721C13.3967 12.3565 13.011 12.5163 12.6089 12.5163C12.2067 12.5163 11.8211 12.3565 11.5367 12.0721C11.2523 11.7878 11.0926 11.4021 11.0926 10.9999C11.0926 10.5978 11.2523 10.2121 11.5367 9.92776C11.8211 9.6434 12.2067 9.48364 12.6089 9.48364C13.011 9.48364 13.3967 9.6434 13.6811 9.92776C13.9654 10.2121 14.1252 10.5978 14.1252 10.9999ZM18.6741 12.5163C19.0763 12.5163 19.4619 12.3565 19.7463 12.0721C20.0307 11.7878 20.1904 11.4021 20.1904 10.9999C20.1904 10.5978 20.0307 10.2121 19.7463 9.92776C19.4619 9.6434 19.0763 9.48364 18.6741 9.48364C18.272 9.48364 17.8863 9.6434 17.6019 9.92776C17.3176 10.2121 17.1578 10.5978 17.1578 10.9999C17.1578 11.4021 17.3176 11.7878 17.6019 12.0721C17.8863 12.3565 18.272 12.5163 18.6741 12.5163V12.5163Z" fill="white"/>
<path d="M3.76125 22.8317L3.79158 22.8257C6.56642 22.2752 8.26164 21.5489 9.05012 21.1501C10.211 21.4598 11.4074 21.6157 12.6089 21.6141C19.3079 21.6141 24.7393 16.862 24.7393 11C24.7393 5.13796 19.3079 0.385864 12.6089 0.385864C5.90986 0.385864 0.478455 5.13796 0.478455 11C0.478455 13.6687 1.60507 16.1099 3.46557 17.975C3.33541 19.173 3.06884 20.3523 2.67103 21.4898L2.66648 21.5065C2.55343 21.8323 2.43004 22.1544 2.2965 22.4724C2.17672 22.7544 2.40871 23.0698 2.71045 23.0213C3.06172 22.9638 3.41204 22.9006 3.76125 22.8317V22.8317ZM4.9743 18.119C4.99554 17.8971 4.96755 17.6731 4.89233 17.4632C4.81711 17.2532 4.69651 17.0625 4.53912 16.9045C2.93184 15.2911 1.99476 13.2259 1.99476 11C1.99476 6.15995 6.54974 1.90217 12.6089 1.90217C18.668 1.90217 23.223 6.15995 23.223 11C23.223 15.8416 18.668 20.0978 12.6089 20.0978C11.54 20.0994 10.4756 19.9607 9.44285 19.6854C9.08193 19.5887 8.69802 19.6286 8.36475 19.7976C7.77794 20.0948 6.48454 20.6619 4.37081 21.1517C4.66569 20.1617 4.86773 19.1465 4.9743 18.119V18.119Z" fill="white"/>
</svg>
