<svg width="350" height="164" viewBox="0 0 350 164" fill="none" xmlns="http://www.w3.org/2000/svg">
<g clip-path="url(#clip0_1_87)">
<path d="M70.2572 116.305C69.2259 116.306 68.2371 116.715 67.5078 117.441C66.7785 118.168 66.3683 119.153 66.3672 120.18V129.247C66.3683 130.275 66.7785 131.26 67.5078 131.986C68.2371 132.713 69.2259 133.121 70.2572 133.122H75.1914C76.2227 133.121 77.2115 132.713 77.9408 131.986C78.6701 131.26 79.0803 130.275 79.0814 129.247V120.18C79.0803 119.153 78.6701 118.168 77.9408 117.441C77.2115 116.715 76.2227 116.306 75.1914 116.305H70.2572Z" fill="#3F3D56"/>
<path d="M161.467 133.424H156.533C155.421 133.423 154.355 132.982 153.569 132.199C152.783 131.416 152.341 130.355 152.34 129.247V120.18C152.341 119.073 152.783 118.011 153.569 117.228C154.355 116.445 155.421 116.005 156.533 116.003H161.467C162.578 116.005 163.644 116.445 164.43 117.228C165.216 118.011 165.658 119.073 165.659 120.18V129.247C165.658 130.355 165.216 131.416 164.43 132.199C163.644 132.982 162.578 133.423 161.467 133.424Z" fill="#3F3D56"/>
<path d="M158.193 126.165H73.2284C69.3616 126.165 66.2158 123.894 66.2158 121.103V104.826L70.4331 100.401H161.808L165.205 104.835V121.103C165.205 123.894 162.06 126.165 158.193 126.165Z" fill="#CCCCCC"/>
<path d="M161.412 108.544H70.9176L69.998 94.4959L70.5832 93.0584L73.9848 84.7192H157.732L162.332 94.1889L161.412 108.544Z" fill="#CCCCCC"/>
<path d="M162.178 94.2191L161.503 104.774H141.593V96.9332L161.612 93.0549L162.178 94.2191Z" fill="white"/>
<path d="M90.4334 96.9331V104.774H70.823L70.1509 94.5205L70.7232 93.1152L90.4334 96.9331Z" fill="white"/>
<path d="M157.228 87.1318H74.4888L83.3135 57.8271C83.6734 56.6168 84.4146 55.554 85.4275 54.7957C86.4405 54.0374 87.6715 53.6238 88.9385 53.6162L143.734 53.0962C145.058 53.0834 146.348 53.5124 147.399 54.3148C148.45 55.1172 149.201 56.2469 149.532 57.5239L157.228 87.1318Z" fill="#CCCCCC"/>
<path d="M150.858 84.3608L80.8447 83.5337C80.7562 83.5327 80.6691 83.511 80.5906 83.4703C80.512 83.4297 80.4441 83.3712 80.3924 83.2997C80.3406 83.2281 80.3065 83.1455 80.2926 83.0584C80.2788 82.9713 80.2856 82.8821 80.3126 82.7982L87.0245 61.936C87.0611 61.8223 87.133 61.7231 87.2298 61.6527C87.3267 61.5824 87.4434 61.5444 87.5633 61.5444H143.877C143.996 61.5444 144.113 61.5823 144.21 61.6527C144.307 61.723 144.379 61.8221 144.415 61.9358L151.404 83.625C151.431 83.7101 151.438 83.8004 151.423 83.8886C151.409 83.9767 151.373 84.0602 151.32 84.132C151.267 84.2039 151.197 84.2621 151.117 84.3019C151.037 84.3417 150.948 84.3619 150.858 84.3608Z" fill="white"/>
<path d="M125.294 56.6723H106.422C106.263 56.6723 106.119 56.5164 106.046 56.2652C105.973 56.008 105.984 55.7344 106.076 55.4835L107.632 51.563C107.712 51.3632 107.841 51.2439 107.979 51.2439H123.738C123.875 51.2439 124.005 51.3632 124.084 51.563L125.64 55.4835C125.733 55.7344 125.743 56.008 125.67 56.2652C125.597 56.5164 125.453 56.6723 125.294 56.6723Z" fill="#FF455B"/>
<path d="M74.5404 86.5286H62.1289V83.8109C62.1299 82.9323 62.4807 82.09 63.1043 81.4688C63.7279 80.8475 64.5734 80.4981 65.4553 80.4971H74.5404V86.5286Z" fill="#CCCCCC"/>
<path d="M169.595 86.5286H157.183V80.4971H166.268C167.15 80.4981 167.996 80.8475 168.619 81.4688C169.243 82.09 169.594 82.9323 169.595 83.8109V86.5286Z" fill="#CCCCCC"/>
<path d="M60.6772 128.895L0.000488281 150.61L0.258065 151.324L60.9348 129.609L60.6772 128.895Z" fill="#3F3D56"/>
<path d="M170.664 128.896L170.407 129.611L231.085 151.32L231.343 150.606L170.664 128.896Z" fill="#3F3D56"/>
<path d="M119.233 144.641H115.602V139.968H119.233V144.641ZM119.233 135.294H115.602V130.621H119.233V135.294Z" fill="#E6E6E6"/>
<path d="M119.233 164H115.602V159.327H119.233V164ZM119.233 154.653H115.602V149.98H119.233V154.653Z" fill="#E6E6E6"/>
<path d="M278.816 147.856H274.816L272.912 132.486H278.816V147.856Z" fill="#FFB8B8"/>
<path d="M279.836 151.719H266.938V151.557C266.94 150.231 267.469 148.96 268.411 148.022C269.352 147.084 270.628 146.557 271.959 146.555H279.836L279.836 151.719Z" fill="#2F2E41"/>
<path d="M330.398 140.305L326.969 142.358L317.392 130.159L322.452 127.13L330.398 140.305Z" fill="#FFB8B8"/>
<path d="M322.214 149.711L322.13 149.571C321.446 148.434 321.243 147.073 321.565 145.786C321.887 144.499 322.708 143.393 323.848 142.708L330.6 138.667L333.27 143.093L322.214 149.711Z" fill="#2F2E41"/>
<path d="M279.856 144.684L279.787 144.684C277.841 144.678 275.897 144.567 273.963 144.35C273.226 144.278 272.427 144.199 271.463 144.12L271.43 144.114C270.773 143.92 270.755 137.779 271.034 116.759C271.176 105.993 271.338 93.7906 271.146 86.0196L271.144 85.9432L271.202 85.8929C278.337 79.7101 287.501 77.3924 297.004 79.367L297.075 79.3816L297.111 79.4433C301.043 86.0701 306.978 95.6154 312.719 104.847C325.896 126.037 329.665 132.269 329.252 132.74L329.202 132.778C328.302 133.226 327.627 133.571 327.052 133.865C325.129 134.847 324.333 135.254 320.055 137.008L319.95 137.052L319.873 136.968C306.502 122.372 295.376 106.067 288.493 90.9951C287.689 96.1407 286.713 102.86 285.682 109.959C282.716 130.374 280.711 143.817 279.904 144.635L279.856 144.684Z" fill="#2F2E41"/>
<path d="M300.623 20.8403C301.969 15.3015 303.11 9.05418 300.571 3.95279C298.809 0.413202 292.29 -0.778776 288.554 0.496399C284.817 1.77157 282.115 5.23122 280.927 9.00332C279.739 12.7754 279.877 16.8401 280.395 20.7615C287.267 20.63 294.139 20.4985 300.623 20.8403Z" fill="#2F2E41"/>
<path d="M289.026 20.8389C293.452 20.8389 297.039 17.2646 297.039 12.8555C297.039 8.44637 293.452 4.87207 289.026 4.87207C284.6 4.87207 281.012 8.44637 281.012 12.8555C281.012 17.2646 284.6 20.8389 289.026 20.8389Z" fill="#FFB8B8"/>
<path d="M298.822 11.2109C298.848 9.86726 298.602 8.53222 298.099 7.28512C297.597 6.03803 296.847 4.90431 295.896 3.95134C294.945 2.99837 293.811 2.24559 292.563 1.73773C291.314 1.22987 289.975 0.977297 288.626 0.995012C287.277 1.01273 285.946 1.30037 284.711 1.84085C283.476 2.38134 282.362 3.16363 281.437 4.14124C280.511 5.11886 279.792 6.27185 279.323 7.53172C278.853 8.79158 278.643 10.1326 278.704 11.4751C285.563 11.4896 292.422 11.5041 298.822 11.2109Z" fill="#2F2E41"/>
<path d="M283.459 87.59C291.431 87.5546 299.351 88.8756 306.878 91.4961C307.14 78.9117 302.791 66.304 294.927 56.8722L294.869 56.8017L294.899 56.7152C296.999 50.6694 299.17 44.4202 301.11 38.202L301.08 38.0976C299.72 33.2792 296.8 28.4102 292.153 23.212C291.649 22.6918 290.965 22.382 290.24 22.3454C289.516 22.3089 288.804 22.5483 288.25 23.0151C279.991 30.5577 275.5 41.8591 276.53 52.509L276.533 52.5403L276.524 52.5706C272.886 64.8504 271.565 71.1576 270.4 76.7224C269.55 80.7818 268.814 84.2968 267.336 89.3192C272.633 88.171 278.038 87.5913 283.459 87.59Z" fill="#3F3D56"/>
<path opacity="0.1" d="M295.196 48.7715L283.36 74.4425L276.599 67.624L295.196 48.7715Z" fill="black"/>
<path d="M268.629 63.0301L269.455 64.6276C269.462 64.6423 269.464 64.6595 269.458 64.6753C269.453 64.6911 269.442 64.7043 269.427 64.7119L269.388 64.7323L273.687 73.0539C273.806 73.2842 273.828 73.5522 273.748 73.7988C273.669 74.0454 273.495 74.2506 273.264 74.3691L268.044 77.0452C267.93 77.1038 267.805 77.1395 267.677 77.15C267.548 77.1606 267.419 77.1459 267.297 77.1068C267.174 77.0676 267.06 77.0048 266.962 76.9219C266.864 76.839 266.783 76.7377 266.724 76.6237L266.724 76.6236L262.576 68.5939L262.547 68.6086C262.537 68.614 262.525 68.6151 262.513 68.6115C262.502 68.608 262.493 68.6002 262.488 68.5898L262.018 67.6806C262.015 67.6754 262.014 67.6698 262.013 67.664C262.013 67.6582 262.013 67.6524 262.015 67.6468C262.017 67.6413 262.02 67.6361 262.023 67.6317C262.027 67.6273 262.032 67.6236 262.037 67.6209L262.066 67.6062L261.889 67.2637L261.86 67.2786C261.849 67.2842 261.836 67.2852 261.824 67.2814C261.813 67.2777 261.803 67.2694 261.797 67.2584L261.334 66.3617C261.328 66.3508 261.327 66.3381 261.331 66.3265C261.335 66.3148 261.343 66.3051 261.354 66.2995L261.383 66.2845L261.142 65.8171L261.112 65.8322C261.102 65.8372 261.091 65.8382 261.081 65.8349C261.07 65.8316 261.062 65.8243 261.057 65.8146L261.057 65.8145L260.804 65.3252C260.799 65.3155 260.798 65.3042 260.801 65.2938C260.804 65.2834 260.812 65.2747 260.821 65.2697L260.851 65.2545L260.339 64.2637C260.22 64.0334 260.198 63.7656 260.277 63.519C260.357 63.2725 260.531 63.0674 260.762 62.9489L265.981 60.2728C266.212 60.1543 266.481 60.1321 266.729 60.2111C266.976 60.2901 267.182 60.4638 267.301 60.694L268.505 63.0235L268.545 63.0031C268.559 62.9955 268.577 62.9941 268.593 62.9992C268.608 63.0043 268.622 63.0154 268.629 63.0301Z" fill="#3F3D56"/>
<path d="M266.973 61.0798L273.307 73.34C273.382 73.4861 273.396 73.6561 273.346 73.8125C273.295 73.9689 273.185 74.099 273.038 74.1742L268.042 76.7358C267.896 76.8111 267.725 76.8255 267.568 76.7757C267.411 76.7259 267.281 76.6161 267.205 76.4704L267.204 76.4687L260.871 64.2085C260.833 64.1361 260.811 64.0572 260.804 63.9761C260.797 63.895 260.806 63.8134 260.831 63.7359C260.856 63.6584 260.896 63.5866 260.949 63.5245C261.002 63.4624 261.066 63.4113 261.139 63.3741L261.139 63.3741L261.887 62.9907L261.936 63.0862C261.967 63.1458 262.009 63.1988 262.061 63.2421C262.112 63.2854 262.171 63.3182 262.235 63.3386C262.299 63.3591 262.367 63.3667 262.434 63.3612C262.501 63.3557 262.566 63.3371 262.626 63.3064L265.167 62.0036C265.288 61.9417 265.379 61.8345 265.42 61.7057C265.462 61.5768 265.45 61.4369 265.388 61.3166L265.338 61.221L266.135 60.8124C266.282 60.7372 266.452 60.7231 266.61 60.7731C266.767 60.8232 266.897 60.9334 266.973 61.0794L266.973 61.0798Z" fill="#FF455B"/>
<path d="M268.808 76.0578C269.287 76.0247 269.752 75.8874 270.172 75.6556C270.591 75.4239 270.954 75.1034 271.236 74.7166C271.518 74.3298 271.711 73.8862 271.802 73.4171C271.893 72.9479 271.88 72.4646 271.763 72.0011L281.515 65.6355L275.953 63.2417L267.545 69.6536C266.776 69.9007 266.125 70.4201 265.716 71.1133C265.306 71.8065 265.165 72.6254 265.321 73.4148C265.477 74.2042 265.918 74.9093 266.561 75.3964C267.203 75.8835 268.003 76.1189 268.808 76.0578Z" fill="#FFB8B8"/>
<path d="M278.193 71.4721L278.07 71.3855C275.749 69.6836 273.172 67.9236 270.68 66.2216L270.53 66.1194L270.648 65.982C275.967 59.7826 281.291 53.3073 286.441 47.0432C286.437 47.0332 286.434 47.0259 286.431 47.0207L286.48 46.9961L286.501 46.9711L286.512 46.9802L286.543 46.9645L286.402 46.9753L284.815 34.5741C283.381 32.6256 283.107 28.7569 284.986 26.0564C286.932 23.259 291.049 22.3227 293.797 24.0521C294.517 24.5335 295.119 25.1701 295.558 25.9147C295.998 26.6593 296.264 27.4929 296.336 28.3537C296.438 29.1205 296.367 29.9004 296.128 30.6364C295.889 31.3723 295.488 32.0458 294.954 32.6076C295.629 39.1706 295.654 45.0368 295.679 50.7111L295.68 50.7677L295.644 50.8144C290.154 57.7632 284.123 64.6749 278.291 71.3591L278.193 71.4721Z" fill="#3F3D56"/>
<path d="M115.752 37.6172C125.704 37.6172 133.771 29.5805 133.771 19.6666C133.771 9.75281 125.704 1.71606 115.752 1.71606C105.801 1.71606 97.7339 9.75281 97.7339 19.6666C97.7339 29.5805 105.801 37.6172 115.752 37.6172Z" fill="#FF455B"/>
<path d="M114.035 27.2439L108.642 20.3358L111.778 17.9057L114.332 21.1766L122.958 12.1045L125.843 14.8273L114.035 27.2439Z" fill="white"/>
<path d="M349.619 152.214H258.555C258.454 152.214 258.357 152.174 258.285 152.103C258.214 152.031 258.174 151.935 258.174 151.834C258.174 151.734 258.214 151.637 258.285 151.566C258.357 151.495 258.454 151.455 258.555 151.455H349.619C349.72 151.455 349.817 151.495 349.889 151.566C349.96 151.637 350 151.734 350 151.834C350 151.935 349.96 152.031 349.889 152.103C349.817 152.174 349.72 152.214 349.619 152.214Z" fill="#3F3D56"/>
</g>
<defs>
<clipPath id="clip0_1_87">
<rect width="350" height="164" fill="white"/>
</clipPath>
</defs>
</svg>
