<svg width="252" height="217" viewBox="0 0 252 217" fill="none" xmlns="http://www.w3.org/2000/svg">
<g clip-path="url(#clip0_1_202)">
<path d="M18.9229 199.139C20.375 199.651 21.9341 199.779 23.4499 199.511C24.9658 199.243 26.3873 198.588 27.5776 197.609C30.6089 195.056 31.5595 190.85 32.3326 186.956L34.6199 175.435L29.8312 178.744C26.3873 181.124 22.866 183.58 20.4817 187.026C18.0973 190.473 17.0571 195.178 18.9723 198.907" fill="#E6E6E6"/>
<path d="M19.6623 213.888C19.0596 209.482 18.4395 205.018 18.8633 200.565C19.2389 196.609 20.4414 192.747 22.8897 189.578C24.1892 187.9 25.7705 186.462 27.5625 185.329C28.0296 185.033 28.4597 185.776 27.9946 186.071C24.8939 188.037 22.4956 190.941 21.1455 194.363C19.6544 198.169 19.4149 202.317 19.6718 206.36C19.827 208.805 20.1569 211.234 20.4882 213.66C20.5144 213.769 20.4981 213.885 20.4426 213.983C20.387 214.081 20.2965 214.154 20.1892 214.188C20.0797 214.218 19.963 214.203 19.8645 214.146C19.7659 214.09 19.6934 213.997 19.6627 213.888L19.6623 213.888Z" fill="#F2F2F2"/>
<path d="M24.0007 206.818C24.6234 207.768 25.4794 208.541 26.4863 209.063C27.4932 209.584 28.617 209.837 29.7494 209.796C32.6603 209.657 35.086 207.62 37.2694 205.684L43.729 199.961L39.454 199.756C36.3796 199.608 33.2259 199.469 30.2976 200.422C27.3694 201.374 24.6688 203.663 24.1334 206.705" fill="#E6E6E6"/>
<path d="M17.9587 216.421C20.8604 211.269 24.2258 205.543 30.2399 203.713C31.912 203.206 33.6652 203.024 35.4053 203.178C35.9538 203.225 35.8168 204.073 35.2694 204.026C32.3526 203.783 29.4415 204.556 27.026 206.215C24.7016 207.802 22.8917 210.01 21.3601 212.35C20.4218 213.784 19.5813 215.279 18.7409 216.771C18.4723 217.249 17.687 216.904 17.9587 216.421Z" fill="#F2F2F2"/>
<path d="M250.141 152.817H90.1641C89.6711 152.817 89.1986 152.62 88.85 152.27C88.5014 151.92 88.3053 151.446 88.3047 150.952V1.8659C88.3053 1.37123 88.5014 0.897007 88.85 0.547223C89.1986 0.19744 89.6711 0.000646656 90.1641 0H250.141C250.633 0.000646656 251.106 0.19744 251.455 0.547223C251.803 0.897007 251.999 1.37123 252 1.8659V150.951C251.999 151.446 251.803 151.92 251.455 152.27C251.106 152.62 250.633 152.817 250.141 152.817V152.817Z" fill="white"/>
<path d="M250.141 152.817H90.1641C89.6711 152.817 89.1986 152.62 88.85 152.27C88.5014 151.92 88.3053 151.446 88.3047 150.952V1.8659C88.3053 1.37123 88.5014 0.897007 88.85 0.547223C89.1986 0.19744 89.6711 0.000646656 90.1641 0H250.141C250.633 0.000646656 251.106 0.19744 251.455 0.547223C251.803 0.897007 251.999 1.37123 252 1.8659V150.951C251.999 151.446 251.803 151.92 251.455 152.27C251.106 152.62 250.633 152.817 250.141 152.817V152.817ZM90.1641 0.74489C89.8686 0.745534 89.5855 0.863591 89.3766 1.07322C89.1677 1.28285 89.0501 1.56699 89.0494 1.86345V150.951C89.0501 151.248 89.1677 151.532 89.3766 151.741C89.5855 151.951 89.8686 152.069 90.1641 152.07H250.141C250.436 152.069 250.719 151.951 250.928 151.742C251.137 151.532 251.255 151.248 251.255 150.951V1.8659C251.255 1.56944 251.137 1.2853 250.928 1.07567C250.719 0.86604 250.436 0.747982 250.141 0.747339L90.1641 0.74489Z" fill="#CACACA"/>
<path d="M165.756 38.7405C165.422 38.7411 165.101 38.8748 164.865 39.1123C164.629 39.3498 164.496 39.6716 164.496 40.0072C164.496 40.3428 164.629 40.6647 164.865 40.9022C165.101 41.1397 165.422 41.2734 165.756 41.274H235.024C235.358 41.2734 235.678 41.1397 235.915 40.9022C236.151 40.6647 236.284 40.3428 236.284 40.0072C236.284 39.6716 236.151 39.3498 235.915 39.1123C235.678 38.8748 235.358 38.7411 235.024 38.7405H165.756Z" fill="#E4E4E4"/>
<path d="M165.756 46.3418C165.422 46.3426 165.101 46.4764 164.865 46.7139C164.629 46.9514 164.497 47.2731 164.497 47.6086C164.497 47.944 164.629 48.2657 164.865 48.5032C165.101 48.7407 165.422 48.8745 165.756 48.8753H201.118C201.453 48.8745 201.773 48.7407 202.009 48.5032C202.245 48.2657 202.378 47.944 202.378 47.6086C202.378 47.2731 202.245 46.9514 202.009 46.7139C201.773 46.4764 201.453 46.3426 201.118 46.3418H165.756Z" fill="#E4E4E4"/>
<path d="M105.214 87.219C104.88 87.2198 104.559 87.3536 104.323 87.5911C104.087 87.8286 103.955 88.1503 103.955 88.4858C103.955 88.8212 104.087 89.1429 104.323 89.3804C104.559 89.6179 104.88 89.7517 105.214 89.7525H235.091C235.425 89.7517 235.745 89.6179 235.981 89.3804C236.217 89.1429 236.35 88.8212 236.35 88.4858C236.35 88.1503 236.217 87.8286 235.981 87.5911C235.745 87.3536 235.425 87.2198 235.091 87.219H105.214Z" fill="#E4E4E4"/>
<path d="M105.214 94.8203C104.88 94.8211 104.559 94.9549 104.323 95.1924C104.087 95.4299 103.955 95.7516 103.955 96.0871C103.955 96.4225 104.087 96.7443 104.323 96.9817C104.559 97.2192 104.88 97.353 105.214 97.3538H201.186C201.52 97.353 201.84 97.2192 202.076 96.9817C202.312 96.7443 202.445 96.4225 202.445 96.0871C202.445 95.7516 202.312 95.4299 202.076 95.1924C201.84 94.9549 201.52 94.8211 201.186 94.8203H105.214Z" fill="#E4E4E4"/>
<path d="M105.214 102.25C104.88 102.25 104.559 102.384 104.323 102.622C104.087 102.859 103.955 103.181 103.955 103.516C103.955 103.852 104.087 104.173 104.323 104.411C104.559 104.648 104.88 104.782 105.214 104.783H235.091C235.425 104.782 235.745 104.648 235.981 104.411C236.217 104.173 236.35 103.852 236.35 103.516C236.35 103.181 236.217 102.859 235.981 102.622C235.745 102.384 235.425 102.25 235.091 102.25H105.214Z" fill="#E4E4E4"/>
<path d="M105.214 109.851C104.88 109.852 104.559 109.985 104.323 110.223C104.087 110.46 103.955 110.782 103.955 111.118C103.955 111.453 104.087 111.775 104.323 112.012C104.559 112.25 104.88 112.384 105.214 112.384H201.186C201.52 112.384 201.84 112.25 202.076 112.012C202.312 111.775 202.445 111.453 202.445 111.118C202.445 110.782 202.312 110.46 202.076 110.223C201.84 109.985 201.52 109.852 201.186 109.851H105.214Z" fill="#E4E4E4"/>
<path d="M105.214 117.478C104.88 117.479 104.559 117.613 104.323 117.85C104.087 118.088 103.955 118.409 103.955 118.745C103.955 119.08 104.087 119.402 104.323 119.639C104.559 119.877 104.88 120.011 105.214 120.012H235.091C235.425 120.011 235.745 119.877 235.981 119.639C236.217 119.402 236.35 119.08 236.35 118.745C236.35 118.409 236.217 118.088 235.981 117.85C235.745 117.613 235.425 117.479 235.091 117.478H105.214Z" fill="#E4E4E4"/>
<path d="M105.214 125.079C104.88 125.08 104.559 125.214 104.323 125.451C104.087 125.689 103.955 126.011 103.955 126.346C103.955 126.682 104.087 127.003 104.323 127.241C104.559 127.478 104.88 127.612 105.214 127.613H201.186C201.52 127.612 201.84 127.478 202.076 127.241C202.312 127.003 202.445 126.682 202.445 126.346C202.445 126.011 202.312 125.689 202.076 125.451C201.84 125.214 201.52 125.08 201.186 125.079H105.214Z" fill="#E4E4E4"/>
<path d="M125.785 62.0076C122.198 62.0076 118.692 60.9403 115.709 58.9404C112.726 56.9406 110.402 54.0982 109.029 50.7726C107.656 47.447 107.297 43.7876 107.997 40.2571C108.697 36.7266 110.424 33.4837 112.96 30.9384C115.497 28.3931 118.728 26.6597 122.247 25.9574C125.765 25.2551 129.411 25.6155 132.725 26.993C136.039 28.3706 138.872 30.7033 140.865 33.6963C142.858 36.6892 143.921 40.208 143.921 43.8076C143.916 48.6329 142.003 53.2589 138.603 56.6708C135.203 60.0828 130.593 62.0021 125.785 62.0076Z" fill="#FF455B"/>
<path d="M70.7314 130.823C70.7 130.159 70.5239 129.509 70.2154 128.921C69.9069 128.332 69.4736 127.819 68.9459 127.416C68.4183 127.014 67.8091 126.732 67.1613 126.592C66.5136 126.451 65.843 126.455 65.1968 126.603L59.202 118.125L53.1794 120.524L61.8128 132.377C62.132 133.45 62.8322 134.368 63.7809 134.958C64.7295 135.547 65.8607 135.767 66.96 135.575C68.0593 135.384 69.0504 134.794 69.7455 133.918C70.4406 133.042 70.7914 131.941 70.7314 130.823H70.7314Z" fill="#A0616A"/>
<path d="M59.0475 130.195L40.9082 106.58L47.7048 85.1446C48.2029 79.7555 51.5635 78.2506 51.7065 78.1891L51.9246 78.0952L57.8389 93.9225L53.4964 105.543L64.155 123.532L59.0475 130.195Z" fill="#3F3D56"/>
<path d="M122.042 57.3989C121.385 57.4817 120.753 57.7081 120.192 58.0622C119.632 58.4164 119.155 58.8897 118.796 59.4487C118.437 60.0077 118.204 60.639 118.115 61.2979C118.025 61.9568 118.081 62.6275 118.277 63.2626L110.318 69.9158L113.167 75.7559L124.276 66.2018C125.317 65.7995 126.176 65.0279 126.688 64.0332C127.2 63.0385 127.331 61.8898 127.056 60.8048C126.78 59.7197 126.118 58.7737 125.194 58.146C124.27 57.5183 123.149 57.2525 122.042 57.3989Z" fill="#A0616A"/>
<path d="M122.322 69.1371L100.262 89.1113L78.4402 83.9685C73.0473 83.8869 71.2924 80.641 71.2203 80.5027L71.1101 80.2917L86.3776 73.1508L98.2587 76.597L115.307 64.5422L122.322 69.1371Z" fill="#3F3D56"/>
<path d="M84.1117 211.133L90.0386 211.133L92.8579 188.192L84.1106 188.193L84.1117 211.133Z" fill="#A0616A"/>
<path d="M101.469 216.655L82.8417 216.656L82.8414 209.434L96.2427 209.433C97.6287 209.433 98.958 209.986 99.9381 210.969C100.918 211.953 101.469 213.287 101.469 214.677L101.469 216.655L101.469 216.655Z" fill="#2F2E41"/>
<path d="M60.4229 211.133L66.3498 211.133L69.1694 188.192L60.4221 188.193L60.4229 211.133Z" fill="#A0616A"/>
<path d="M77.7805 216.655L59.1532 216.656L59.1529 209.434L72.5543 209.433C73.2405 209.433 73.9201 209.569 74.5542 209.832C75.1882 210.096 75.7643 210.482 76.2496 210.969C76.7349 211.456 77.1199 212.034 77.3825 212.671C77.6452 213.307 77.7804 213.989 77.7804 214.677L77.7805 216.655Z" fill="#2F2E41"/>
<path d="M58.3149 127.396L58.7983 161.356L59.2821 205.988L69.9175 205.018L75.2355 143.406L82.0037 205.018H92.9837L94.0897 142.921L90.2222 129.337L58.3149 127.396Z" fill="#2F2E41"/>
<path d="M79.1317 131.957C67.5594 131.958 56.9073 126.702 56.7635 126.63L56.644 126.57L55.6729 103.182C55.3913 102.356 49.846 86.0479 48.9069 80.8645C47.9553 75.613 61.7462 71.0041 63.4209 70.4651L63.8009 66.2405L79.2553 64.5693L81.214 69.9749L86.7584 72.0612C87.3869 72.2979 87.9071 72.7577 88.2204 73.3536C88.5336 73.9495 88.6182 74.6399 88.458 75.2942L85.3766 87.8693L92.9025 129.474L91.2823 129.544C87.3985 131.304 83.2069 131.957 79.1317 131.957Z" fill="#3F3D56"/>
<path d="M77.4704 60.5252C82.8626 57.5672 84.8443 50.7826 81.8966 45.3715C78.9489 39.9603 72.1881 37.9717 66.7958 40.9297C61.4035 43.8877 59.4218 50.6722 62.3695 56.0834C65.3172 61.4946 72.0781 63.4832 77.4704 60.5252Z" fill="#A0616A"/>
<path d="M63.1207 61.5371C65.2413 63.8039 69.1795 62.587 69.4558 59.4903C69.4775 59.2498 69.4759 59.0079 69.4511 58.7678C69.3085 57.396 68.5188 56.1507 68.7079 54.7023C68.7507 54.3419 68.8846 53.9983 69.0967 53.7043C70.7866 51.4335 74.7533 54.7199 76.3481 52.6643C77.326 51.4038 76.1765 49.4193 76.9269 48.0105C77.9174 46.1511 80.851 47.0683 82.6907 46.05C84.7376 44.9171 84.6152 41.7656 83.2678 39.8486C81.6245 37.5109 78.7435 36.2635 75.8983 36.0837C73.0531 35.9039 70.2275 36.6757 67.5713 37.7145C64.5533 38.8948 61.5605 40.5259 59.7032 43.189C57.4446 46.4275 57.2272 50.7815 58.3568 54.5683C59.044 56.872 61.3891 59.686 63.1207 61.5371Z" fill="#2F2E41"/>
<path d="M141.39 216.943H0.370132C0.271967 216.943 0.177816 216.904 0.108403 216.834C0.03899 216.765 0 216.67 0 216.572C0 216.473 0.03899 216.379 0.108403 216.309C0.177816 216.239 0.271967 216.2 0.370132 216.2H141.39C141.488 216.2 141.583 216.239 141.652 216.309C141.721 216.379 141.76 216.473 141.76 216.572C141.76 216.67 141.721 216.765 141.652 216.834C141.583 216.904 141.488 216.943 141.39 216.943Z" fill="#CACACA"/>
<path d="M124.738 50.6819C124.411 50.6823 124.096 50.5581 123.856 50.3344L117.876 44.7603C117.625 44.5256 117.476 44.2003 117.464 43.856C117.451 43.5117 117.576 43.1765 117.809 42.924C118.043 42.6715 118.367 42.5225 118.71 42.5096C119.053 42.4967 119.387 42.6211 119.639 42.8553L124.705 47.5768L134.727 37.52C134.847 37.3985 134.99 37.302 135.147 37.2361C135.304 37.1702 135.473 37.1361 135.644 37.1357C135.814 37.1354 135.983 37.1689 136.141 37.2343C136.298 37.2996 136.442 37.3956 136.562 37.5166C136.683 37.6376 136.778 37.7814 136.843 37.9395C136.909 38.0977 136.942 38.2673 136.942 38.4384C136.941 38.6095 136.907 38.7789 136.841 38.9368C136.776 39.0948 136.68 39.2381 136.558 39.3586L125.654 50.3012C125.534 50.4221 125.391 50.5179 125.234 50.5833C125.076 50.6486 124.908 50.6821 124.738 50.6819Z" fill="white"/>
</g>
<defs>
<clipPath id="clip0_1_202">
<rect width="252" height="217" fill="white"/>
</clipPath>
</defs>
</svg>
