<svg width="153" height="184" viewBox="0 0 153 184" fill="none" xmlns="http://www.w3.org/2000/svg">
<g clip-path="url(#clip0_1_157)">
<path d="M1.09372 88.0048C1.65589 88.942 2.41709 89.7448 3.32368 90.3565C4.23027 90.9683 5.26022 91.3742 6.34096 91.5457C7.4217 91.7171 8.52696 91.65 9.57888 91.3489C10.6308 91.0478 11.6038 90.5202 12.4293 89.8031L35.5039 103.014L34.6439 89.2421L12.8638 78.8082C11.5651 77.5037 9.83215 76.7199 7.99332 76.6056C6.15448 76.4913 4.33751 77.0542 2.8867 78.1878C1.43589 79.3214 0.452034 80.9469 0.121577 82.7562C-0.208879 84.5656 0.137016 86.433 1.09372 88.0048Z" fill="#FFB8B8"/>
<path d="M67.8969 140.927C61.0522 150.49 61.2971 166.489 63.2068 184H95.5686L96.9757 180.723L98.8517 184H129.338C129.338 184 126.993 139.522 122.771 138.118C118.55 136.713 67.8969 140.927 67.8969 140.927Z" fill="#2F2E41"/>
<path d="M95.5688 41.0125C104.635 41.0125 111.984 33.676 111.984 24.626C111.984 15.576 104.635 8.2395 95.5688 8.2395C86.5028 8.2395 79.1533 15.576 79.1533 24.626C79.1533 33.676 86.5028 41.0125 95.5688 41.0125Z" fill="#FFB8B8"/>
<path d="M107.433 45.2639L110.643 51.4058L132.847 61.2863L127.01 117.668L124.554 123.506L125.881 128.577L122.681 132.319C125.893 135.22 126.301 138.257 124.554 141.398L114.329 143.736C114.329 143.736 57.4775 148.782 62.2688 139.991C67.5039 130.384 68.837 102.014 57.28 86.853C47.4684 73.982 55.0011 57.2807 55.0011 57.2807L78.2746 50.3377L86.8349 45.2639L107.433 45.2639Z" fill="#3F3D56"/>
<path d="M102.857 0.622234C102.934 0.459309 103.058 0.323119 103.213 0.231154C103.368 0.139188 103.548 0.0956464 103.728 0.106122C96.2125 -0.342629 88.2966 0.531756 82.0092 4.66589C80.486 5.66746 79.05 6.8621 77.3924 7.58865C77.3142 7.62375 77.2464 7.67844 77.1956 7.74742C77.1448 7.8164 77.1127 7.89732 77.1025 7.98232C77.0923 8.06733 77.1043 8.15352 77.1373 8.23254C77.1703 8.31156 77.2232 8.38072 77.2909 8.4333L77.4729 8.57581C77.5447 8.63204 77.5998 8.70685 77.632 8.79211C77.6642 8.87737 77.6723 8.96981 77.6556 9.05938C77.6388 9.14896 77.5978 9.23223 77.5369 9.30014C77.4761 9.36806 77.3977 9.41801 77.3104 9.44458C77.2194 9.47228 77.1382 9.52536 77.0764 9.59759C77.0146 9.66981 76.9748 9.75815 76.9616 9.85222C76.9484 9.94629 76.9625 10.0422 77.002 10.1285C77.0416 10.2149 77.1051 10.2882 77.185 10.3397L78.5802 11.2399C78.6504 11.2844 78.7084 11.3458 78.7486 11.4185C78.7889 11.4912 78.8103 11.5729 78.8108 11.656C78.8112 11.739 78.7907 11.8209 78.7513 11.8941C78.7118 11.9672 78.6545 12.0293 78.5847 12.0746C78.4666 12.1474 78.3425 12.2102 78.2137 12.2623C78.1336 12.2924 78.0627 12.3425 78.0076 12.4079C77.9526 12.4732 77.9153 12.5517 77.8994 12.6356C77.8836 12.7195 77.8896 12.8061 77.9171 12.887C77.9445 12.9679 77.9923 13.0404 78.0559 13.0975C78.66 13.6344 79.1235 14.3107 79.4057 15.0673C79.8707 16.2743 79.9543 17.5888 80.0328 18.8795C80.5134 17.0171 82.5496 15.9208 84.4729 15.8094C86.3963 15.698 88.2721 16.3315 90.1439 16.7869C94.2208 17.7759 98.455 17.9385 102.596 17.2651C101.19 20.082 102.376 23.442 103.57 26.355L107.433 24.7019C112.74 21.7119 109.043 34.3601 107.06 36.0965C111.11 37.4983 121.712 21.9397 118.301 16.038C116.527 12.968 117.787 9.00848 114.299 6.09682C112.589 4.30041 109.176 5.09885 107.433 3.60582C106.747 3.01819 107.793 1.44606 106.85 1.10344C106.537 0.989644 102.908 0.507541 102.857 0.622234Z" fill="#2F2E41"/>
<path d="M75.0512 51.9238C72.039 65.2731 64.3133 96.4419 56.4752 102.96C55.9781 103.429 55.3821 103.78 54.731 103.988C27.1801 110.688 18.3523 93.5979 18.3523 93.5979C18.3523 93.5979 25.7356 90.0063 25.9228 82.9858L40.8125 87.5976L53.7921 58.4396L55.7021 56.6611L55.7128 56.6504L75.0512 51.9238Z" fill="#3F3D56"/>
<path d="M133.794 175.198C134.583 174.441 135.196 173.52 135.59 172.501C135.984 171.482 136.149 170.389 136.074 169.299C135.999 168.209 135.686 167.149 135.156 166.193C134.626 165.238 133.893 164.409 133.008 163.767L140.732 138.357L127.479 142.282L122.177 165.81C121.194 167.365 120.818 169.227 121.118 171.041C121.419 172.856 122.376 174.497 123.808 175.655C125.24 176.812 127.048 177.404 128.888 177.32C130.729 177.236 132.474 176.481 133.794 175.198Z" fill="#FFB8B8"/>
<path d="M126.725 59.8647L132.847 61.2863C132.847 61.2863 158.149 110.429 152.052 119.793C145.955 129.156 138.485 160.157 138.485 160.157C138.485 160.157 127.437 157.965 123.216 152.347L130.946 115.579L122.973 84.6786L126.725 59.8647Z" fill="#3F3D56"/>
<path d="M10.5879 132.84L10.8077 53.6927C10.814 52.0908 11.4565 50.5567 12.5944 49.4271C13.7323 48.2975 15.2726 47.6646 16.8774 47.6672L76.7567 47.833C78.3615 47.8392 79.8982 48.4807 81.0298 49.6165C82.1614 50.7524 82.7954 52.29 82.7928 53.8919L82.573 133.039C82.5667 134.641 81.9242 136.175 80.7863 137.305C79.6484 138.434 78.1081 139.067 76.5033 139.065L16.624 138.899C15.0192 138.893 13.4825 138.251 12.3509 137.115C11.2193 135.98 10.5853 134.442 10.5879 132.84Z" fill="#E6E6E6"/>
<path d="M15.2473 108.947L15.3887 58.0639C15.3945 56.5637 15.9963 55.127 17.0619 54.0691C18.1276 53.0111 19.5702 52.4184 21.0731 52.4209L72.5344 52.5633C74.0373 52.5691 75.4766 53.1698 76.5364 54.2336C77.5962 55.2974 78.1901 56.7374 78.1876 58.2377L77.992 128.668C77.9861 130.168 77.3843 131.605 76.3186 132.663C75.2528 133.721 73.8103 134.314 72.3073 134.311L40.4281 134.223C33.7336 134.197 27.3227 131.521 22.6021 126.783C17.8814 122.044 15.2364 115.63 15.2473 108.947Z" fill="white"/>
<path d="M66.6379 74.7718H26.5114C25.8728 74.7718 25.2604 74.5186 24.8089 74.0679C24.3574 73.6172 24.1038 73.0058 24.1038 72.3684C24.1038 71.731 24.3574 71.1197 24.8089 70.669C25.2604 70.2183 25.8728 69.9651 26.5114 69.9651H66.6379C67.2765 69.9651 67.8888 70.2183 68.3404 70.669C68.7919 71.1197 69.0455 71.731 69.0455 72.3684C69.0455 73.0058 68.7919 73.6172 68.3404 74.0679C67.8888 74.5186 67.2765 74.7718 66.6379 74.7718Z" fill="#FF455B"/>
<path d="M35.3392 63.6895H26.5114C25.8728 63.6895 25.2604 63.4363 24.8089 62.9856C24.3574 62.5349 24.1038 61.9236 24.1038 61.2862C24.1038 60.6488 24.3574 60.0375 24.8089 59.5867C25.2604 59.136 25.8728 58.8828 26.5114 58.8828H35.3392C35.9777 58.8828 36.5901 59.136 37.0416 59.5867C37.4931 60.0375 37.7468 60.6488 37.7468 61.2862C37.7468 61.9236 37.4931 62.5349 37.0416 62.9856C36.5901 63.4363 35.9777 63.6895 35.3392 63.6895Z" fill="#FF455B"/>
<path d="M66.6379 85.8538H26.5114C25.8728 85.8538 25.2604 85.6006 24.8089 85.1499C24.3574 84.6992 24.1038 84.0879 24.1038 83.4505C24.1038 82.8131 24.3574 82.2018 24.8089 81.751C25.2604 81.3003 25.8728 81.0471 26.5114 81.0471H66.6379C67.2765 81.0471 67.8888 81.3003 68.3404 81.751C68.7919 82.2018 69.0455 82.8131 69.0455 83.4505C69.0455 84.0879 68.7919 84.6992 68.3404 85.1499C67.8888 85.6006 67.2765 85.8538 66.6379 85.8538Z" fill="#FF455B"/>
<path d="M66.6379 96.9359H26.5114C25.8728 96.9359 25.2604 96.6826 24.8089 96.2319C24.3574 95.7812 24.1038 95.1699 24.1038 94.5325C24.1038 93.8951 24.3574 93.2838 24.8089 92.8331C25.2604 92.3824 25.8728 92.1292 26.5114 92.1292H66.6379C67.2765 92.1292 67.8888 92.3824 68.3404 92.8331C68.7919 93.2838 69.0455 93.8951 69.0455 94.5325C69.0455 95.1699 68.7919 95.7812 68.3404 96.2319C67.8888 96.6826 67.2765 96.9359 66.6379 96.9359Z" fill="#FF455B"/>
<path d="M63.3911 126.137C68.6819 126.137 72.9709 121.855 72.9709 116.574C72.9709 111.292 68.6819 107.011 63.3911 107.011C58.1003 107.011 53.8113 111.292 53.8113 116.574C53.8113 121.855 58.1003 126.137 63.3911 126.137Z" fill="#FF455B"/>
<path d="M62.0841 121.551C61.9187 121.551 61.7555 121.512 61.6076 121.438C61.4596 121.365 61.3309 121.257 61.2317 121.125L58.6182 117.647C58.534 117.535 58.4727 117.408 58.4379 117.272C58.403 117.137 58.3952 116.996 58.4149 116.858C58.4346 116.719 58.4815 116.586 58.5528 116.466C58.6241 116.345 58.7185 116.24 58.8306 116.156C58.9426 116.072 59.0701 116.011 59.2058 115.977C59.3415 115.942 59.4827 115.935 59.6213 115.954C59.7599 115.974 59.8932 116.021 60.0137 116.093C60.1341 116.164 60.2393 116.258 60.3232 116.37L62.033 118.646L66.4246 112.07C66.502 111.953 66.6017 111.853 66.7181 111.775C66.8344 111.697 66.965 111.642 67.1025 111.615C67.2399 111.587 67.3815 111.587 67.5191 111.614C67.6567 111.641 67.7875 111.695 67.9042 111.772C68.0209 111.85 68.121 111.95 68.199 112.066C68.2769 112.183 68.3311 112.313 68.3584 112.451C68.3857 112.588 68.3855 112.729 68.358 112.866C68.3305 113.004 68.276 113.134 68.1979 113.25L62.9709 121.077C62.8763 121.219 62.7491 121.336 62.6 121.418C62.4509 121.5 62.2841 121.546 62.1138 121.55C62.1039 121.551 62.094 121.551 62.0841 121.551Z" fill="white"/>
<path d="M42.9632 29.2414C45.4748 29.2414 47.5109 27.209 47.5109 24.7018C47.5109 22.1946 45.4748 20.1621 42.9632 20.1621C40.4516 20.1621 38.4155 22.1946 38.4155 24.7018C38.4155 27.209 40.4516 29.2414 42.9632 29.2414Z" fill="#F2F2F2"/>
<path d="M26.3775 159.823C28.8891 159.823 30.9252 157.791 30.9252 155.284C30.9252 152.777 28.8891 150.744 26.3775 150.744C23.8659 150.744 21.8298 152.777 21.8298 155.284C21.8298 157.791 23.8659 159.823 26.3775 159.823Z" fill="#F2F2F2"/>
<path d="M130.974 46.8662C133.486 46.8662 135.522 44.8337 135.522 42.3265C135.522 39.8193 133.486 37.7869 130.974 37.7869C128.463 37.7869 126.427 39.8193 126.427 42.3265C126.427 44.8337 128.463 46.8662 130.974 46.8662Z" fill="#F2F2F2"/>
</g>
<defs>
<clipPath id="clip0_1_157">
<rect width="153" height="184" fill="white"/>
</clipPath>
</defs>
</svg>
