<svg width="19" height="19" viewBox="0 0 19 19" fill="none" xmlns="http://www.w3.org/2000/svg">
<path d="M8.27106 4.60464L5.39552 1.28559C5.06403 0.903111 4.45628 0.904811 4.07123 1.29069L1.70654 3.6595C1.00275 4.3641 0.801298 5.41039 1.20845 6.24929C3.64081 11.2852 7.70245 15.3523 12.7352 17.7916C13.5733 18.1987 14.6188 17.9973 15.3226 17.2927L17.7094 14.9018C18.0962 14.515 18.097 13.9039 17.7111 13.5725L14.3791 10.7124C14.0306 10.4132 13.4892 10.4523 13.1398 10.8025L11.9804 11.9635C11.9211 12.0257 11.843 12.0667 11.758 12.0802C11.6731 12.0937 11.5861 12.079 11.5104 12.0383C9.61528 10.947 8.04325 9.37305 6.95442 7.47662C6.91364 7.40076 6.89887 7.31362 6.91238 7.22857C6.9259 7.14351 6.96694 7.06523 7.02921 7.00575L8.18521 5.84897C8.53541 5.49709 8.57366 4.95312 8.27106 4.60379V4.60464Z" stroke="#444444" stroke-width="2" stroke-linecap="round" stroke-linejoin="round"/>
</svg>
