<svg width="20" height="20" viewBox="0 0 20 20" fill="none" xmlns="http://www.w3.org/2000/svg">
<path d="M10.0001 13.3333C11.841 13.3333 13.3334 11.8409 13.3334 9.99996C13.3334 8.15901 11.841 6.66663 10.0001 6.66663C8.15913 6.66663 6.66675 8.15901 6.66675 9.99996C6.66675 11.8409 8.15913 13.3333 10.0001 13.3333Z" fill="#9B9B9B"/>
<path d="M10.8334 3.39079V1.66663H9.16675V3.39079C7.70033 3.57803 6.33755 4.24677 5.29222 5.2921C4.24689 6.33743 3.57815 7.70021 3.39091 9.16663H1.66675V10.8333H3.39091C3.57788 12.2998 4.24653 13.6627 5.29191 14.7081C6.3373 15.7535 7.70022 16.4222 9.16675 16.6091V18.3333H10.8334V16.6091C12.3 16.4223 13.663 15.7537 14.7084 14.7083C15.7538 13.6629 16.4224 12.2999 16.6092 10.8333H18.3334V9.16663H16.6092C16.4223 7.7001 15.7536 6.33717 14.7083 5.29179C13.6629 4.24641 12.2999 3.57775 10.8334 3.39079ZM10.0001 15C7.24258 15 5.00008 12.7575 5.00008 9.99996C5.00008 7.24246 7.24258 4.99996 10.0001 4.99996C12.7576 4.99996 15.0001 7.24246 15.0001 9.99996C15.0001 12.7575 12.7576 15 10.0001 15Z" fill="#9B9B9B"/>
</svg>
