<svg width="70" height="10" viewBox="0 0 70 10" fill="none" xmlns="http://www.w3.org/2000/svg">
<path d="M69.6768 3.52128L66.679 3.06505L65.3389 0.220085C65.3023 0.142191 65.2421 0.0791345 65.1677 0.0408059C64.9811 -0.0556336 64.7544 0.0247327 64.6612 0.220085L63.3211 3.06505L60.3233 3.52128C60.2406 3.53365 60.165 3.57445 60.1072 3.63627C60.0372 3.71155 59.9987 3.81283 60 3.91785C60.0014 4.02287 60.0425 4.12305 60.1143 4.19636L62.2832 6.41076L61.7708 9.53763C61.7588 9.61037 61.7665 9.68517 61.793 9.75357C61.8195 9.82197 61.8638 9.88121 61.9208 9.92459C61.9779 9.96797 62.0454 9.99375 62.1157 9.999C62.186 10.0042 62.2563 9.98876 62.3186 9.9543L65 8.47803L67.6814 9.9543C67.7546 9.9951 67.8396 10.0087 67.9211 9.99386C68.1265 9.95677 68.2647 9.75276 68.2292 9.53763L67.7168 6.41076L69.8858 4.19636C69.9448 4.13578 69.9838 4.05665 69.9956 3.9701C70.0275 3.75373 69.8834 3.55343 69.6768 3.52128Z" fill="#FFB11A"/>
<path d="M54.6768 3.52128L51.679 3.06505L50.3389 0.220085C50.3023 0.142191 50.2421 0.0791345 50.1677 0.0408059C49.9811 -0.0556336 49.7544 0.0247327 49.6612 0.220085L48.3211 3.06505L45.3233 3.52128C45.2406 3.53365 45.165 3.57445 45.1072 3.63627C45.0372 3.71155 44.9987 3.81283 45 3.91785C45.0014 4.02287 45.0425 4.12305 45.1143 4.19636L47.2832 6.41076L46.7708 9.53763C46.7588 9.61037 46.7665 9.68517 46.793 9.75357C46.8195 9.82197 46.8638 9.88121 46.9208 9.92459C46.9779 9.96797 47.0454 9.99375 47.1157 9.999C47.186 10.0042 47.2563 9.98876 47.3186 9.9543L50 8.47803L52.6814 9.9543C52.7546 9.9951 52.8396 10.0087 52.9211 9.99386C53.1265 9.95677 53.2647 9.75276 53.2292 9.53763L52.7168 6.41076L54.8858 4.19636C54.9448 4.13578 54.9838 4.05665 54.9956 3.9701C55.0275 3.75373 54.8834 3.55343 54.6768 3.52128Z" fill="#FFB11A"/>
<path d="M39.6768 3.52128L36.679 3.06505L35.3389 0.220085C35.3023 0.142191 35.2421 0.0791345 35.1677 0.0408059C34.9811 -0.0556336 34.7544 0.0247327 34.6612 0.220085L33.3211 3.06505L30.3233 3.52128C30.2406 3.53365 30.165 3.57445 30.1072 3.63627C30.0372 3.71155 29.9987 3.81283 30 3.91785C30.0014 4.02287 30.0425 4.12305 30.1143 4.19636L32.2832 6.41076L31.7708 9.53763C31.7588 9.61037 31.7665 9.68517 31.793 9.75357C31.8195 9.82197 31.8638 9.88121 31.9208 9.92459C31.9779 9.96797 32.0454 9.99375 32.1157 9.999C32.186 10.0042 32.2563 9.98876 32.3186 9.9543L35 8.47803L37.6814 9.9543C37.7546 9.9951 37.8396 10.0087 37.9211 9.99386C38.1265 9.95677 38.2647 9.75276 38.2292 9.53763L37.7168 6.41076L39.8858 4.19636C39.9448 4.13578 39.9838 4.05665 39.9956 3.9701C40.0275 3.75373 39.8834 3.55343 39.6768 3.52128Z" fill="#FFB11A"/>
<path d="M24.6768 3.52128L21.679 3.06505L20.3389 0.220085C20.3023 0.142191 20.2421 0.0791345 20.1677 0.0408059C19.9811 -0.0556336 19.7544 0.0247327 19.6612 0.220085L18.3211 3.06505L15.3233 3.52128C15.2406 3.53365 15.165 3.57445 15.1072 3.63627C15.0372 3.71155 14.9987 3.81283 15 3.91785C15.0014 4.02287 15.0425 4.12305 15.1143 4.19636L17.2832 6.41076L16.7708 9.53763C16.7588 9.61037 16.7665 9.68517 16.793 9.75357C16.8195 9.82197 16.8638 9.88121 16.9208 9.92459C16.9779 9.96797 17.0454 9.99375 17.1157 9.999C17.186 10.0042 17.2563 9.98876 17.3186 9.9543L20 8.47803L22.6814 9.9543C22.7546 9.9951 22.8396 10.0087 22.9211 9.99386C23.1265 9.95677 23.2647 9.75276 23.2292 9.53763L22.7168 6.41076L24.8858 4.19636C24.9448 4.13578 24.9838 4.05665 24.9956 3.9701C25.0275 3.75373 24.8834 3.55343 24.6768 3.52128Z" fill="#FFB11A"/>
<path d="M9.67679 3.52128L6.67898 3.06505L5.33889 0.220085C5.30228 0.142191 5.24207 0.0791345 5.16768 0.0408059C4.98113 -0.0556336 4.75444 0.0247327 4.66116 0.220085L3.32106 3.06505L0.323258 3.52128C0.240609 3.53365 0.165044 3.57445 0.107189 3.63627C0.0372466 3.71155 -0.00129512 3.81283 3.3232e-05 3.91785C0.00136159 4.02287 0.0424513 4.12305 0.114274 4.19636L2.28323 6.41076L1.7708 9.53763C1.75878 9.61037 1.76647 9.68517 1.79299 9.75357C1.81951 9.82197 1.86379 9.88121 1.92083 9.92459C1.97787 9.96797 2.04537 9.99375 2.11568 9.999C2.186 10.0042 2.25631 9.98876 2.31865 9.9543L5.00002 8.47803L7.6814 9.9543C7.7546 9.9951 7.83962 10.0087 7.92108 9.99386C8.12653 9.95677 8.26467 9.75276 8.22925 9.53763L7.71682 6.41076L9.88577 4.19636C9.94481 4.13578 9.98377 4.05665 9.99558 3.9701C10.0275 3.75373 9.88341 3.55343 9.67679 3.52128Z" fill="#FFB11A"/>
</svg>
