<svg width="16" height="16" viewBox="0 0 16 16" fill="none" xmlns="http://www.w3.org/2000/svg">
<path d="M13.8333 0.5L2.16667 0.5C1.72464 0.5 1.30072 0.675595 0.988156 0.988156C0.675595 1.30072 0.5 1.72464 0.5 2.16667L0.5 13.8333C0.5 14.2754 0.675595 14.6993 0.988156 15.0118C1.30072 15.3244 1.72464 15.5 2.16667 15.5L13.8333 15.5C14.2754 15.5 14.6993 15.3244 15.0118 15.0118C15.3244 14.6993 15.5 14.2754 15.5 13.8333L15.5 2.16667C15.5 1.72464 15.3244 1.30072 15.0118 0.988156C14.6993 0.675595 14.2754 0.5 13.8333 0.5ZM8 12.1667L3.83333 8L7.16667 8V3.83333L8.83333 3.83333L8.83333 8L12.1667 8L8 12.1667Z" fill="#FF455B"/>
</svg>
