<svg width="23" height="23" viewBox="0 0 23 23" fill="none" xmlns="http://www.w3.org/2000/svg">
<path d="M10.5801 16.5601C7.2681 16.5601 4.6001 13.8921 4.6001 10.5801C4.6001 7.2681 7.2681 4.6001 10.5801 4.6001C13.8921 4.6001 16.5601 7.2681 16.5601 10.5801C16.5601 13.8921 13.8921 16.5601 10.5801 16.5601ZM10.5801 5.5201C7.7741 5.5201 5.5201 7.7741 5.5201 10.5801C5.5201 13.3861 7.7741 15.6401 10.5801 15.6401C13.3861 15.6401 15.6401 13.3861 15.6401 10.5801C15.6401 7.7741 13.3861 5.5201 10.5801 5.5201Z" fill="#9B9B9B"/>
<path d="M15.0337 14.3828L19.1645 18.5136L18.5141 19.1641L14.3833 15.0333L15.0337 14.3828Z" fill="#9B9B9B"/>
</svg>
