<svg width="16" height="16" viewBox="0 0 16 16" fill="none" xmlns="http://www.w3.org/2000/svg">
<path d="M15.854 0.146028C15.9232 0.21536 15.9705 0.303502 15.9901 0.399505C16.0097 0.495508 16.0006 0.595141 15.964 0.686028L10.145 15.233C10.0937 15.3611 10.0081 15.4726 9.89752 15.5552C9.78697 15.6378 9.65577 15.6883 9.51838 15.7011C9.38098 15.7139 9.24271 15.6886 9.11879 15.6279C8.99486 15.5672 8.89009 15.4734 8.81599 15.357L5.63799 10.362L0.642993 7.18403C0.526311 7.11001 0.432344 7.0052 0.371463 6.88116C0.310581 6.75711 0.285151 6.61866 0.297978 6.48108C0.310805 6.3435 0.361391 6.21214 0.444154 6.10148C0.526917 5.99083 0.638639 5.9052 0.766993 5.85403L15.314 0.0370277C15.4049 0.000439957 15.5045 -0.00863977 15.6005 0.0109164C15.6965 0.0304726 15.7847 0.0778028 15.854 0.147028V0.146028ZM6.63599 10.07L9.39699 14.408L14.13 2.57603L6.63599 10.07ZM13.423 1.86903L1.59099 6.60203L5.92999 9.36203L13.424 1.86903H13.423Z" fill="white"/>
</svg>
