<svg width="24" height="25" viewBox="0 0 24 25" fill="none" xmlns="http://www.w3.org/2000/svg">
<path d="M10.5932 6.18264L6.79341 1.79659C6.35536 1.29115 5.55228 1.2934 5.04348 1.80333L1.91877 4.93365C0.988769 5.86478 0.722573 7.24742 1.26058 8.35601C4.47472 15.0109 9.84179 20.3855 16.4921 23.6089C17.5996 24.1469 18.9811 23.8807 19.9111 22.9496L23.065 19.7901C23.5761 19.279 23.5772 18.4714 23.0673 18.0334L18.6644 14.2539C18.2039 13.8585 17.4884 13.9102 17.0268 14.3729L15.4947 15.9072C15.4163 15.9894 15.3131 16.0436 15.2009 16.0614C15.0887 16.0793 14.9737 16.0598 14.8736 16.006C12.3694 14.564 10.2921 12.484 8.85333 9.97789C8.79945 9.87765 8.77994 9.7625 8.79779 9.6501C8.81565 9.5377 8.86988 9.43426 8.95217 9.35565L10.4797 7.82699C10.9425 7.36199 10.993 6.64315 10.5932 6.18152V6.18264Z" stroke="white" stroke-linecap="round" stroke-linejoin="round"/>
</svg>
