<svg width="20" height="20" viewBox="0 0 20 20" fill="none" xmlns="http://www.w3.org/2000/svg">
<path d="M9.372 2.02499C10.9872 1.89766 12.603 2.26375 14.0055 3.07482C15.4081 3.8859 16.5314 5.10372 17.2266 6.56715C17.9219 8.03057 18.1565 9.67062 17.8993 11.2703C17.6421 12.8699 16.9052 14.3538 15.7862 15.5255C14.6672 16.6972 13.2188 17.5015 11.6327 17.832C10.0466 18.1625 8.39747 18.0037 6.90361 17.3764C5.40976 16.7492 4.14156 15.6831 3.26683 14.3193C2.39211 12.9556 1.95209 11.3583 2.005 9.73899C2.01084 9.54008 2.09545 9.35163 2.24023 9.21511C2.38501 9.07858 2.57809 9.00516 2.777 9.01099C2.97591 9.01683 3.16436 9.10144 3.30089 9.24622C3.43741 9.391 3.51084 9.58408 3.505 9.78299C3.45432 11.3159 3.9473 12.8173 4.89676 14.0217C5.84623 15.2262 7.19101 16.0561 8.69332 16.3648C10.1956 16.6734 11.7587 16.4409 13.1061 15.7084C14.4536 14.9758 15.4986 13.7904 16.0563 12.3617C16.6141 10.933 16.6488 9.35316 16.1541 7.90142C15.6595 6.44968 14.6674 5.21961 13.3534 4.42871C12.0394 3.63781 10.488 3.33703 8.97359 3.57955C7.45919 3.82208 6.07933 4.59229 5.078 5.75399L4.874 6.00299H6.751L6.853 6.00999C7.03327 6.03388 7.19872 6.12245 7.31856 6.25922C7.4384 6.396 7.50447 6.57165 7.50447 6.75349C7.50447 6.93534 7.4384 7.11099 7.31856 7.24776C7.19872 7.38453 7.03327 7.47311 6.853 7.49699L6.751 7.50299H3.253L3.151 7.49699C2.9887 7.47468 2.83818 7.39983 2.72242 7.2839C2.60667 7.16797 2.53206 7.01733 2.51 6.85499L2.503 6.75299V2.75299L2.51 2.65199C2.53206 2.48966 2.60667 2.33902 2.72242 2.22309C2.83818 2.10715 2.9887 2.03231 3.151 2.00999L3.253 2.00399L3.355 2.00999C3.5173 2.03231 3.66783 2.10715 3.78358 2.22309C3.89933 2.33902 3.97394 2.48966 3.996 2.65199L4.003 2.75299L4.002 4.70599C5.37471 3.14731 7.30123 2.18549 9.372 2.02499ZM9.75 6.00299L9.852 6.00999C10.0143 6.03231 10.1648 6.10715 10.2806 6.22309C10.3963 6.33902 10.4709 6.48966 10.493 6.65199L10.5 6.75299V9.99999L12.25 10.001L12.352 10.008C12.5315 10.0327 12.696 10.1215 12.8151 10.2581C12.9342 10.3947 12.9998 10.5698 12.9998 10.751C12.9998 10.9322 12.9342 11.1073 12.8151 11.2439C12.696 11.3804 12.5315 11.4693 12.352 11.494L12.25 11.501H9.75L9.648 11.494C9.48585 11.4717 9.33543 11.397 9.2197 11.2813C9.10396 11.1656 9.02927 11.0151 9.007 10.853L9 10.75V6.75299L9.007 6.65199C9.02906 6.48966 9.10367 6.33902 9.21942 6.22309C9.33518 6.10715 9.4857 6.03231 9.648 6.00999L9.75 6.00399V6.00299Z" fill="#9B9B9B"/>
</svg>
