<svg width="16" height="18" viewBox="0 0 16 18" fill="none" xmlns="http://www.w3.org/2000/svg">
<path d="M8 9C10.0711 9 11.75 7.32107 11.75 5.25C11.75 3.17893 10.0711 1.5 8 1.5C5.92893 1.5 4.25 3.17893 4.25 5.25C4.25 7.32107 5.92893 9 8 9Z" stroke="black" stroke-width="2"/>
<path d="M11.75 10.5H12.014C12.5624 10.5002 13.0917 10.7005 13.5027 11.0635C13.9137 11.4264 14.1781 11.9269 14.246 12.471L14.5393 14.814C14.5657 15.0251 14.5469 15.2393 14.4841 15.4426C14.4213 15.6458 14.3161 15.8334 14.1753 15.9928C14.0345 16.1523 13.8614 16.28 13.6675 16.3674C13.4736 16.4549 13.2633 16.5 13.0505 16.5H2.94955C2.73683 16.5 2.52654 16.4549 2.33263 16.3674C2.13872 16.28 1.96562 16.1523 1.82483 15.9928C1.68403 15.8334 1.57876 15.6458 1.516 15.4426C1.45324 15.2393 1.43442 15.0251 1.4608 14.814L1.7533 12.471C1.82132 11.9267 2.08586 11.4259 2.49717 11.063C2.90848 10.7 3.43823 10.4998 3.9868 10.5H4.25005" stroke="black" stroke-width="2" stroke-linecap="round" stroke-linejoin="round"/>
</svg>
