<svg width="210" height="178" viewBox="0 0 210 178" fill="none" xmlns="http://www.w3.org/2000/svg">
<g clip-path="url(#clip0_1_559)">
<path d="M123.322 45.6963H117.096C116.779 45.6959 116.474 45.5698 116.25 45.3455C116.025 45.1212 115.899 44.8172 115.899 44.5V38.2796C115.899 37.9625 116.025 37.6584 116.25 37.4341C116.474 37.2099 116.779 37.0837 117.096 37.0834H123.322C123.639 37.0837 123.944 37.2099 124.168 37.4341C124.393 37.6584 124.519 37.9625 124.519 38.2796V44.5C124.519 44.8172 124.393 45.1212 124.168 45.3455C123.944 45.5698 123.639 45.6959 123.322 45.6963ZM117.096 37.5619C116.906 37.5621 116.723 37.6378 116.588 37.7723C116.454 37.9069 116.378 38.0893 116.378 38.2796V44.5C116.378 44.6903 116.454 44.8728 116.588 45.0073C116.723 45.1419 116.906 45.2176 117.096 45.2178H123.322C123.512 45.2176 123.695 45.1419 123.83 45.0073C123.964 44.8728 124.04 44.6903 124.04 44.5V38.2796C124.04 38.0893 123.964 37.9069 123.83 37.7723C123.695 37.6378 123.512 37.5621 123.322 37.5619H117.096Z" fill="#E6E6E6"/>
<path d="M50.7656 8.6129H44.5396C44.2222 8.61254 43.9178 8.48639 43.6934 8.26213C43.4689 8.03787 43.3426 7.73382 43.3423 7.41667V1.19624C43.3426 0.879086 43.4689 0.57503 43.6934 0.35077C43.9178 0.126511 44.2222 0.000362831 44.5396 0H50.7656C51.083 0.000362831 51.3873 0.126511 51.6118 0.35077C51.8362 0.57503 51.9625 0.879086 51.9629 1.19624V7.41667C51.9625 7.73382 51.8362 8.03787 51.6118 8.26213C51.3873 8.48639 51.083 8.61254 50.7656 8.6129ZM44.5396 0.478495C44.3491 0.478702 44.1665 0.554388 44.0318 0.688946C43.8972 0.823504 43.8214 1.00594 43.8212 1.19624V7.41667C43.8214 7.60696 43.8972 7.7894 44.0318 7.92396C44.1665 8.05852 44.3491 8.1342 44.5396 8.13441H50.7656C50.956 8.1342 51.1386 8.05852 51.2733 7.92396C51.408 7.7894 51.4837 7.60696 51.4839 7.41667V1.19624C51.4837 1.00594 51.408 0.823504 51.2733 0.688946C51.1386 0.554388 50.956 0.478702 50.7656 0.478495H44.5396Z" fill="#E6E6E6"/>
<path d="M119.491 42.586H113.265C112.947 42.5857 112.643 42.4595 112.418 42.2353C112.194 42.011 112.068 41.707 112.067 41.3898V35.1694C112.068 34.8522 112.194 34.5482 112.418 34.3239C112.643 34.0997 112.947 33.9735 113.265 33.9731H119.491C119.808 33.9735 120.112 34.0997 120.337 34.3239C120.561 34.5482 120.688 34.8522 120.688 35.1694V41.3898C120.688 41.707 120.561 42.011 120.337 42.2353C120.112 42.4595 119.808 42.5857 119.491 42.586ZM113.265 34.4516C113.074 34.4518 112.892 34.5275 112.757 34.6621C112.622 34.7966 112.547 34.9791 112.546 35.1694V41.3898C112.547 41.5801 112.622 41.7625 112.757 41.8971C112.892 42.0317 113.074 42.1073 113.265 42.1076H119.491C119.681 42.1073 119.864 42.0317 119.998 41.8971C120.133 41.7625 120.209 41.5801 120.209 41.3898V35.1694C120.209 34.9791 120.133 34.7966 119.998 34.6621C119.864 34.5275 119.681 34.4518 119.491 34.4516H113.265Z" fill="#E6E6E6"/>
<path d="M11.2546 94.5027H5.0286C4.71117 94.5023 4.40684 94.3762 4.18238 94.1519C3.95792 93.9276 3.83166 93.6236 3.8313 93.3064V87.086C3.83166 86.7689 3.95792 86.4648 4.18238 86.2405C4.40684 86.0163 4.71117 85.8901 5.0286 85.8898H11.2546C11.572 85.8901 11.8763 86.0163 12.1008 86.2405C12.3252 86.4648 12.4515 86.7689 12.4519 87.086V93.3064C12.4515 93.6236 12.3252 93.9276 12.1008 94.1519C11.8763 94.3762 11.572 94.5023 11.2546 94.5027ZM5.0286 86.3683C4.83814 86.3685 4.65554 86.4442 4.52086 86.5787C4.38618 86.7133 4.31043 86.8957 4.31022 87.086V93.3064C4.31043 93.4967 4.38618 93.6792 4.52086 93.8137C4.65554 93.9483 4.83814 94.024 5.0286 94.0242H11.2546C11.445 94.024 11.6276 93.9483 11.7623 93.8137C11.897 93.6792 11.9727 93.4967 11.9729 93.3064V87.086C11.9727 86.8957 11.897 86.7133 11.7623 86.5787C11.6276 86.4442 11.445 86.3685 11.2546 86.3683H5.0286Z" fill="#E6E6E6"/>
<path d="M7.42327 91.3924H1.1973C0.879869 91.3921 0.575541 91.2659 0.351082 91.0417C0.126624 90.8174 0.000363154 90.5134 0 90.1962V83.9758C0.000363154 83.6586 0.126624 83.3546 0.351082 83.1303C0.575541 82.9061 0.879869 82.7799 1.1973 82.7795H7.42327C7.7407 82.7799 8.04503 82.9061 8.26948 83.1303C8.49394 83.3546 8.6202 83.6586 8.62057 83.9758V90.1962C8.6202 90.5134 8.49394 90.8174 8.26948 91.0417C8.04503 91.2659 7.7407 91.3921 7.42327 91.3924ZM1.1973 83.258C1.00684 83.2582 0.824236 83.3339 0.689559 83.4685C0.554881 83.603 0.479128 83.7855 0.47892 83.9758V90.1962C0.479128 90.3865 0.554881 90.5689 0.689559 90.7035C0.824236 90.8381 1.00684 90.9137 1.1973 90.9139H7.42327C7.61373 90.9137 7.79633 90.8381 7.93101 90.7035C8.06569 90.5689 8.14144 90.3865 8.14165 90.1962V83.9758C8.14144 83.7855 8.06569 83.603 7.93101 83.4685C7.79633 83.3339 7.61373 83.2582 7.42327 83.258H1.1973Z" fill="#E6E6E6"/>
<path d="M22.1331 20.5845H79.751C82.5314 20.5845 85.229 21.5296 87.4005 23.2645C89.5719 24.9993 91.088 27.4207 91.6995 30.1306L120.813 159.149C121.13 160.556 121.136 162.016 120.829 163.425C120.522 164.835 119.911 166.161 119.037 167.309C118.163 168.458 117.049 169.401 115.771 170.074C114.494 170.746 113.085 171.132 111.643 171.203L52.4113 174.118C49.2396 174.275 46.1195 173.272 43.633 171.299C41.1465 169.326 39.4637 166.516 38.8984 163.394L22.3837 72.1762L21.1551 72.527L17.9951 55.2379L19.2598 54.922L14.65 29.4599C14.4525 28.3693 14.4983 27.2487 14.7841 26.1778C15.0698 25.1069 15.5885 24.1122 16.3032 23.2646C17.0179 22.4169 17.9109 21.7373 18.9186 21.274C19.9263 20.8108 21.0239 20.5753 22.1331 20.5845V20.5845Z" fill="#3F3D56"/>
<path d="M72.1657 23.3657H78.8914C80.8229 23.3657 82.6963 24.0257 84.2006 25.2361C85.705 26.4466 86.7497 28.1346 87.1615 30.02L115.106 157.986C115.267 158.722 115.267 159.485 115.106 160.222C114.944 160.959 114.626 161.652 114.172 162.254C113.718 162.857 113.139 163.354 112.475 163.713C111.811 164.071 111.078 164.282 110.325 164.332L51.2848 168.198C49.6191 168.307 47.9716 167.799 46.6567 166.772C45.3417 165.745 44.4513 164.27 44.1554 162.629L20.31 30.3638C20.1557 29.5077 20.1913 28.6282 20.4143 27.7874C20.6373 26.9465 21.0423 26.1649 21.6007 25.4975C22.1591 24.8301 22.8573 24.2933 23.646 23.925C24.4348 23.5566 25.2948 23.3657 26.1654 23.3657H32.5458C33.1633 23.3657 33.7637 23.5691 34.2538 23.9444C34.744 24.3197 35.0966 24.846 35.2571 25.4418C35.3989 25.9677 35.7102 26.4324 36.1429 26.7637C36.5756 27.095 37.1056 27.2746 37.6508 27.2746H67.9408C69.0084 27.2746 70.0366 26.872 70.8199 26.1473C71.6032 25.4226 72.0838 24.4292 72.1657 23.3657L72.1657 23.3657Z" fill="white"/>
<path d="M24.9038 45.1235H88.9537L95.7771 75.8415L30.8903 77.0377L24.9038 45.1235Z" fill="#333333"/>
<path d="M85.7268 103.296H100.806L101.285 106.18H86.2057L85.7268 103.296Z" fill="#6C63FF"/>
<path d="M97.9956 88.5829L34.0442 89.9359L34.0506 90.2366L98.0019 88.8835L97.9956 88.5829Z" fill="#2F2E41"/>
<path d="M99.9513 97.4529L34.7961 98.9563L34.8031 99.257L99.9583 97.7536L99.9513 97.4529Z" fill="#2F2E41"/>
<path d="M91.9526 134.159H107.032L107.511 137.043H92.4316L91.9526 134.159Z" fill="#6C63FF"/>
<path d="M104.221 119.446L40.27 120.799L40.2764 121.099L104.228 119.746L104.221 119.446Z" fill="#2F2E41"/>
<path d="M106.177 128.316L41.0222 129.819L41.0292 130.12L106.184 128.616L106.177 128.316Z" fill="#2F2E41"/>
<path d="M147.402 174.939L144.549 174.939L143.192 163.944L147.403 163.944L147.402 174.939Z" fill="#A0616A"/>
<path d="M148.13 177.702L138.93 177.702V177.586C138.93 176.637 139.307 175.727 139.979 175.056C140.65 174.385 141.561 174.008 142.511 174.008H142.511L148.13 174.009L148.13 177.702Z" fill="#2F2E41"/>
<path d="M182.846 173.073L180.069 173.726L176.225 163.335L180.324 162.37L182.846 173.073Z" fill="#A0616A"/>
<path d="M184.188 175.596L175.234 177.702L175.207 177.589C174.989 176.666 175.148 175.694 175.647 174.887C176.147 174.08 176.947 173.504 177.871 173.287L177.872 173.287L183.341 172L184.188 175.596Z" fill="#2F2E41"/>
<path d="M146.819 128.564C146.825 127.99 146.994 114.468 150.704 109.355L150.759 109.28L163.688 111.062L163.399 113.9C163.968 114.453 168.441 119.123 169.733 130.182L183.456 167.005L177.076 167.585L158.191 127.387L148.197 171.082H141.872L146.819 128.564Z" fill="#2F2E41"/>
<path d="M149.19 109.854L150.454 103.225C150.206 102.907 149.11 101.379 149.354 99.5874C149.513 98.4188 150.211 97.3941 151.43 96.541L154.705 88.9041L154.75 88.8783C154.97 88.7484 160.186 85.7351 163.029 88.5781C163.1 88.6331 170.101 94.1856 167.29 101.676L163.819 112.08L149.19 109.854Z" fill="#CCCCCC"/>
<path d="M144.793 118.823C145.133 118.784 145.462 118.671 145.754 118.491C146.046 118.312 146.296 118.071 146.485 117.785C146.673 117.499 146.797 117.175 146.847 116.836C146.897 116.497 146.872 116.151 146.774 115.823L153.539 110.953L149.489 109.414L143.686 114.274C143.145 114.475 142.697 114.868 142.426 115.378C142.155 115.888 142.081 116.479 142.217 117.039C142.354 117.6 142.691 118.091 143.166 118.42C143.641 118.749 144.219 118.892 144.793 118.823Z" fill="#A0616A"/>
<path d="M146.036 110.945L156.364 102.815L153.293 92.3341C153.149 91.8379 153.108 91.3171 153.173 90.8044C153.239 90.2916 153.409 89.7978 153.674 89.3537C153.919 88.935 154.249 88.5721 154.643 88.2882C155.036 88.0043 155.485 87.8057 155.96 87.7051C157.728 87.3313 159.333 88.3204 160.729 90.6454L160.74 90.6664C160.971 91.2306 166.351 104.519 162.243 107.361C158.224 110.141 148.905 114.187 148.812 114.228L148.702 114.275L146.036 110.945Z" fill="#CCCCCC"/>
<path d="M159.762 85.8141C163.218 85.8141 166.019 83.0154 166.019 79.5631C166.019 76.1108 163.218 73.3121 159.762 73.3121C156.307 73.3121 153.506 76.1108 153.506 79.5631C153.506 83.0154 156.307 85.8141 159.762 85.8141Z" fill="#A0616A"/>
<path d="M169.571 77.3316C172.628 77.3316 175.106 74.8557 175.106 71.8015C175.106 68.7474 172.628 66.2715 169.571 66.2715C166.514 66.2715 164.036 68.7474 164.036 71.8015C164.036 74.8557 166.514 77.3316 169.571 77.3316Z" fill="#2F2E41"/>
<path d="M174.345 76.3808C173.629 76.8981 172.799 77.2365 171.925 77.3676C171.051 77.4988 170.158 77.4189 169.321 77.1346C168.484 76.8503 167.728 76.3698 167.115 75.7335C166.502 75.0972 166.05 74.3235 165.798 73.4771C165.893 74.2356 166.145 74.9661 166.537 75.6224C166.93 76.2788 167.454 76.8468 168.077 77.2905C168.7 77.7342 169.409 78.0441 170.158 78.2004C170.907 78.3568 171.68 78.3564 172.429 78.1991C173.177 78.0418 173.885 77.7311 174.508 77.2867C175.131 76.8422 175.654 76.2736 176.046 75.6168C176.437 74.96 176.688 74.2292 176.783 73.4705C176.877 72.7119 176.813 71.9419 176.595 71.2092C176.719 72.1936 176.576 73.1932 176.18 74.1032C175.784 75.0131 175.15 75.7998 174.345 76.3808Z" fill="#2F2E41"/>
<path d="M152.502 76.387C153.468 74.6586 153.838 73.9366 155.084 72.8856C156.185 71.9561 157.54 71.6832 158.634 72.5639C159.927 72.0057 161.365 71.8791 162.736 72.203C164.107 72.5268 165.337 73.2839 166.243 74.3616C167.148 75.4393 167.682 76.7802 167.765 78.1851C167.847 79.5901 167.474 80.9841 166.7 82.1601C165.926 83.3361 164.793 84.2314 163.47 84.713C162.146 85.1946 160.703 85.2368 159.353 84.8333C158.004 84.4297 156.82 83.6021 155.979 82.4732C155.138 81.3444 154.684 79.9745 154.684 78.5672C154.685 78.32 154.7 78.0731 154.728 77.8277C153.778 77.6943 153.452 76.5203 152.502 76.387Z" fill="#2F2E41"/>
<path d="M209.76 178H118.526C118.463 178 118.402 177.975 118.357 177.93C118.312 177.885 118.287 177.824 118.287 177.761C118.287 177.697 118.312 177.636 118.357 177.592C118.402 177.547 118.463 177.521 118.526 177.521H209.76C209.824 177.521 209.885 177.547 209.93 177.592C209.975 177.636 210 177.697 210 177.761C210 177.824 209.975 177.885 209.93 177.93C209.885 177.975 209.824 178 209.76 178Z" fill="#3F3D56"/>
</g>
<defs>
<clipPath id="clip0_1_559">
<rect width="210" height="178" fill="white"/>
</clipPath>
</defs>
</svg>
