<svg width="321" height="244" viewBox="0 0 321 244" fill="none" xmlns="http://www.w3.org/2000/svg">
<g clip-path="url(#clip0_1_621)">
<path d="M128.448 50.6H127.277V18.5498C127.277 16.1138 126.797 13.7017 125.864 11.4511C124.931 9.20054 123.563 7.15562 121.839 5.43312C120.115 3.71061 118.068 2.34424 115.815 1.41203C113.563 0.479809 111.148 2.06396e-06 108.71 0H40.7445C35.8202 -9.37865e-06 31.0976 1.95432 27.6157 5.43307C24.1337 8.91183 22.1775 13.63 22.1775 18.5497V194.38C22.1775 196.816 22.6577 199.228 23.5908 201.478C24.5239 203.729 25.8915 205.774 27.6156 207.496C29.3397 209.219 31.3865 210.585 33.6392 211.517C35.8918 212.45 38.3062 212.929 40.7444 212.929H108.71C113.634 212.929 118.357 210.975 121.839 207.496C125.321 204.018 127.277 199.299 127.277 194.38V73.4138H128.448V50.6Z" fill="#3F3D56"/>
<path d="M109.459 4.82593H100.588C100.995 5.82526 101.151 6.9095 101.041 7.98313C100.931 9.05676 100.558 10.0868 99.9554 10.9826C99.3529 11.8784 98.539 12.6124 97.5857 13.1199C96.6323 13.6274 95.5686 13.8929 94.4884 13.893H55.5518C54.4715 13.8929 53.4078 13.6274 52.4545 13.1199C51.5011 12.6124 50.6873 11.8784 50.0847 10.9826C49.4822 10.0868 49.1094 9.05677 48.9991 7.98314C48.8889 6.90951 49.0446 5.82526 49.4526 4.82593H41.1664C39.3455 4.82593 37.5425 5.18424 35.8603 5.88041C34.178 6.57657 32.6495 7.59696 31.3619 8.8833C30.0744 10.1697 29.0531 11.6968 28.3562 13.3775C27.6594 15.0582 27.3008 16.8595 27.3008 18.6787V194.251C27.3008 196.07 27.6594 197.871 28.3562 199.552C29.0531 201.232 30.0744 202.76 31.3619 204.046C32.6495 205.332 34.178 206.353 35.8602 207.049C37.5425 207.745 39.3455 208.103 41.1664 208.103H109.459C111.28 208.103 113.083 207.745 114.765 207.049C116.448 206.353 117.976 205.332 119.264 204.046C120.551 202.76 121.573 201.233 122.269 199.552C122.966 197.871 123.325 196.07 123.325 194.251V18.6787C123.325 16.8595 122.966 15.0582 122.269 13.3775C121.573 11.6968 120.551 10.1697 119.264 8.8833C117.976 7.59696 116.448 6.57657 114.765 5.88041C113.083 5.18424 111.28 4.82593 109.459 4.82593Z" fill="white"/>
<path d="M150.232 212.96H0.393279C0.288975 212.96 0.188942 212.918 0.115188 212.845C0.0414343 212.771 0 212.671 0 212.567C0 212.463 0.0414343 212.363 0.115188 212.289C0.188942 212.215 0.288975 212.174 0.393279 212.174H150.232C150.337 212.174 150.437 212.215 150.51 212.289C150.584 212.363 150.626 212.463 150.626 212.567C150.626 212.671 150.584 212.771 150.51 212.845C150.437 212.918 150.337 212.96 150.232 212.96Z" fill="#CBCBCB"/>
<path d="M75.3129 135.823C93.6548 135.823 108.524 120.967 108.524 102.643C108.524 84.3177 93.6548 69.4624 75.3129 69.4624C56.9711 69.4624 42.1021 84.3177 42.1021 102.643C42.1021 120.967 56.9711 135.823 75.3129 135.823Z" fill="#333333"/>
<path d="M72.0217 115.3C71.2746 115.301 70.5473 115.06 69.9495 114.612L69.9125 114.584L62.1074 108.619C61.746 108.342 61.4426 107.997 61.2147 107.603C60.9868 107.209 60.8388 106.774 60.7791 106.323C60.7195 105.871 60.7494 105.413 60.8671 104.973C60.9848 104.534 61.188 104.122 61.4651 103.76C61.7422 103.399 62.0879 103.096 62.4822 102.869C62.8766 102.641 63.312 102.493 63.7635 102.433C64.2151 102.374 64.674 102.404 65.114 102.521C65.554 102.639 65.9666 102.842 66.3281 103.119L71.3835 106.992L83.3298 91.4211C83.6068 91.0601 83.9523 90.7571 84.3465 90.5295C84.7407 90.3019 85.1759 90.1541 85.6273 90.0945C86.0787 90.035 86.5374 90.0648 86.9772 90.1823C87.417 90.2999 87.8294 90.5028 88.1907 90.7796L88.1917 90.7803L88.1176 90.8832L88.1937 90.7803C88.9227 91.3401 89.3996 92.1659 89.5199 93.0765C89.6401 93.9872 89.3938 94.9083 88.8351 95.6378L74.7836 113.944C74.4585 114.366 74.0405 114.707 73.5621 114.942C73.0837 115.176 72.5576 115.297 72.0248 115.296L72.0217 115.3Z" fill="white"/>
<path d="M273.032 216.221C273.436 215.568 273.911 214.963 274.45 214.415C274.672 214.185 274.906 213.969 275.148 213.758C276.616 212.452 278.406 211.56 280.334 211.175C282.261 210.789 284.257 210.924 286.115 211.564C287.974 212.205 289.628 213.328 290.907 214.819C292.187 216.31 293.046 218.115 293.396 220.047C295.018 214.054 290.796 208.151 286.551 203.617C282.304 199.085 277.449 194.112 277.474 187.901C277.486 184.445 279.178 181.362 281.733 179.076C281.811 179.007 281.89 178.938 281.971 178.871C285.059 176.227 289.032 174.843 293.096 174.998C300.646 175.402 307.239 180.472 311.818 186.486C319.187 196.162 322.417 209.745 317.257 220.76C312.719 230.448 303.041 236.201 293.163 240.826C291.784 241.472 290.407 242.098 289.033 242.705C289.024 242.708 289.014 242.714 289.005 242.716C288.939 242.745 288.873 242.775 288.811 242.804C288.528 242.929 288.244 243.054 287.963 243.178L288.093 243.263L288.499 243.526C288.358 243.44 288.219 243.358 288.078 243.273C288.036 243.247 287.992 243.222 287.95 243.197C283.099 240.288 278.18 237.212 274.828 232.671C271.352 227.957 269.955 221.205 273.032 216.221Z" fill="#F1F1F1"/>
<path d="M305.399 205.273C306.474 207.714 307.186 210.3 307.514 212.946C307.771 215.307 307.674 217.692 307.226 220.024C306.263 224.815 304.162 229.305 301.1 233.117C298.79 236.01 296.123 238.6 293.163 240.826C291.784 241.472 290.407 242.098 289.033 242.705C289.024 242.707 289.014 242.714 289.005 242.716C288.939 242.745 288.873 242.774 288.811 242.804C288.527 242.929 288.244 243.054 287.963 243.178L288.093 243.263L288.499 243.526C288.358 243.44 288.219 243.358 288.078 243.272C288.036 243.247 287.992 243.222 287.95 243.197C289.018 239.465 289.175 235.533 288.408 231.729C287.641 227.925 285.973 224.36 283.542 221.332C281.099 218.343 277.984 215.973 274.45 214.415C274.672 214.185 274.906 213.969 275.147 213.758C276.509 214.382 277.812 215.126 279.042 215.98C283.442 219.018 286.746 223.391 288.465 228.451C289.999 233.041 290.191 237.974 289.017 242.67C289.261 242.511 289.505 242.347 289.743 242.185C294.262 239.14 298.427 235.483 301.565 230.998C304.271 227.208 306.003 222.811 306.607 218.195C307.209 213.153 305.946 208.194 303.692 203.695C301.204 198.881 298.069 194.43 294.373 190.465C290.662 186.391 286.465 182.786 281.876 179.73C281.773 179.66 281.7 179.554 281.674 179.432C281.647 179.31 281.668 179.183 281.732 179.076C281.782 178.979 281.867 178.906 281.97 178.871C282.023 178.858 282.078 178.856 282.131 178.867C282.184 178.878 282.234 178.9 282.277 178.933C282.843 179.311 283.405 179.692 283.96 180.084C288.581 183.353 292.777 187.182 296.452 191.485C300.004 195.632 303.236 200.24 305.399 205.273Z" fill="white"/>
<path d="M206.488 15.4063C210.383 15.4063 213.541 12.2515 213.541 8.35979C213.541 4.46808 210.383 1.31323 206.488 1.31323C202.592 1.31323 199.435 4.46808 199.435 8.35979C199.435 12.2515 202.592 15.4063 206.488 15.4063Z" fill="#F1F1F1"/>
<path d="M294.189 109.706C296.564 109.706 298.489 107.782 298.489 105.41C298.489 103.037 296.564 101.114 294.189 101.114C291.814 101.114 289.889 103.037 289.889 105.41C289.889 107.782 291.814 109.706 294.189 109.706Z" fill="#F1F1F1"/>
<path d="M168.34 121.493C170.715 121.493 172.64 119.57 172.64 117.197C172.64 114.824 170.715 112.901 168.34 112.901C165.965 112.901 164.04 114.824 164.04 117.197C164.04 119.57 165.965 121.493 168.34 121.493Z" fill="#F1F1F1"/>
<path d="M170.768 244H320.607C320.711 244 320.811 243.959 320.885 243.885C320.959 243.811 321 243.711 321 243.607C321 243.503 320.959 243.403 320.885 243.329C320.811 243.256 320.711 243.214 320.607 243.214H170.768C170.663 243.214 170.563 243.256 170.489 243.329C170.416 243.403 170.374 243.503 170.374 243.607C170.374 243.711 170.416 243.811 170.489 243.885C170.563 243.959 170.663 244 170.768 244Z" fill="#CBCBCB"/>
<path d="M304.071 37.9693C304.268 36.5737 303.945 35.1545 303.165 33.9805C302.384 32.8066 301.199 31.9596 299.835 31.5999C298.472 31.2403 297.023 31.393 295.764 32.0291C294.505 32.6652 293.524 33.7406 293.006 35.0514L280.846 48.978L284.414 58.9332L296.642 42.6605C297.44 42.9159 298.285 42.9933 299.116 42.8875C299.947 42.7816 300.745 42.4949 301.453 42.0476C302.161 41.6004 302.763 41.0034 303.215 40.2987C303.667 39.5941 303.96 38.7989 304.071 37.9693Z" fill="#FFB7B7"/>
<path d="M253.67 92.1578L294.032 49.1222L288.587 40.475L237.963 83.2492L253.67 92.1578Z" fill="#3F3D56"/>
<path d="M244.662 66.0097C252.481 66.0097 258.82 59.6768 258.82 51.8648C258.82 44.0527 252.481 37.7198 244.662 37.7198C236.842 37.7198 230.504 44.0527 230.504 51.8648C230.504 59.6768 236.842 66.0097 244.662 66.0097Z" fill="#2F2E41"/>
<path d="M245.8 43.8742C248.846 40.7876 252.533 38.4058 256.6 36.8963C259.211 35.93 262.053 35.3329 264.782 35.8817C267.512 36.4305 270.093 38.317 270.855 40.9927C271.477 43.1805 270.834 45.5362 269.868 47.5958C268.902 49.6554 267.612 51.5652 266.83 53.7016C266.033 55.8815 265.793 58.2259 266.133 60.5219C266.472 62.8178 267.38 64.9927 268.774 66.8491C270.169 68.7055 272.005 70.1846 274.117 71.1522C276.228 72.1197 278.548 72.545 280.866 72.3896C278.184 72.7488 275.712 74.008 273.09 74.6782C270.469 75.3484 267.375 75.303 265.427 73.4267C263.366 71.4415 263.325 68.2138 263.424 65.3553C263.572 61.1059 263.721 56.8565 263.869 52.6072C263.944 50.4401 264.009 48.2035 263.226 46.1808C262.444 44.1582 260.585 42.387 258.415 42.4054C256.77 42.4193 255.314 43.4149 253.995 44.3967C252.676 45.3785 251.28 46.426 249.641 46.572C248.003 46.7181 246.132 45.5066 246.254 43.8678L245.8 43.8742Z" fill="#2F2E41"/>
<path d="M190.888 146.841C189.529 147.218 188.079 147.084 186.812 146.465C185.545 145.845 184.55 144.782 184.014 143.478C183.479 142.174 183.442 140.719 183.908 139.389C184.375 138.059 185.314 136.947 186.547 136.262L198.778 122.399L209.123 124.632L194.573 138.87C194.931 139.627 195.118 140.453 195.122 141.29C195.125 142.127 194.945 142.955 194.594 143.715C194.242 144.475 193.728 145.149 193.088 145.689C192.448 146.229 191.697 146.622 190.888 146.841H190.888Z" fill="#FFB7B7"/>
<path d="M231.129 97.2091L200.644 135.44L191.352 131.177L227.183 75.4443L231.129 97.2091Z" fill="#3F3D56"/>
<path d="M206.805 212.65L199.539 212.536L200.413 237.276H206.804L206.805 212.65Z" fill="#FFB7B7"/>
<path d="M208.434 235.192L195.848 235.191H195.848C193.721 235.191 191.681 236.036 190.177 237.538C188.673 239.041 187.828 241.079 187.827 243.204V243.464L208.433 243.465L208.434 235.192Z" fill="#2F2E41"/>
<path d="M254.909 206.088L246.973 211.179L262.849 230.261L268.226 226.811L254.909 206.088Z" fill="#FFB7B7"/>
<path d="M268.471 224.177L257.88 230.97L257.88 230.97C256.09 232.119 254.83 233.93 254.377 236.007C253.924 238.083 254.315 240.254 255.464 242.042L255.605 242.261L272.944 231.139L268.471 224.177Z" fill="#2F2E41"/>
<path d="M257.737 130.542C257.737 130.542 240.102 72.0263 234.435 71.2355C228.768 70.4447 219.637 86.25 219.637 86.25C207.798 101.341 195.59 150.225 195.59 150.225C195.59 150.225 215.941 151.497 230.818 159.405C245.694 167.312 263.25 159.004 263.25 159.004L257.737 130.542Z" fill="#3F3D56"/>
<path opacity="0.1" d="M257.737 130.542C257.737 130.542 240.102 72.0262 234.435 71.2355C228.768 70.4447 221.956 86.4103 221.956 86.4103C216.057 110.771 195.59 150.225 195.59 150.225C195.59 150.225 215.941 151.497 230.818 159.404C245.694 167.312 263.25 159.004 263.25 159.004L257.737 130.542Z" fill="black"/>
<path d="M243.269 113.034V142.438L246.733 185.032L264.037 217.251L255.778 223.144L232.181 192.497L222.849 162.066L208.191 229.431L197.18 228.645L204.827 135.245L219.34 108.955L243.269 113.034Z" fill="#2F2E41"/>
<path d="M225.489 84.5944C219.983 90.0953 225.096 95.989 225.096 95.989L218.803 110.134L243.58 116.813L252.239 78.1592L246.339 71.8726C234.541 71.4796 234.535 71.2354 234.535 71.2354C232.467 73.2564 225.489 84.5944 225.489 84.5944Z" fill="#FF455B"/>
<path d="M253.236 74.1546C252.111 73.3248 250.832 72.7262 249.474 72.3936C248.115 72.061 246.704 72.0011 245.322 72.2172C243.94 72.4332 242.615 72.9211 241.423 73.6525C240.232 74.3839 239.197 75.3442 238.379 76.478C232.151 85.1426 226.391 99.1339 234.327 116.583C247.069 144.602 258.157 158.945 262.664 158.944C262.861 158.945 263.057 158.915 263.244 158.853C266.018 157.912 270.03 153.222 270.756 149.088C271.016 147.608 270.955 145.547 269.184 144.132C264.096 140.067 254.963 127.409 252.115 110.749C250.54 101.543 253.593 93.1573 256.432 87.7438C257.631 85.5038 257.982 82.9071 257.42 80.4298C256.858 77.9524 255.421 75.7603 253.373 74.2553L253.236 74.1546Z" fill="#3F3D56"/>
<path d="M245.39 64.62C250.44 61.8617 252.296 55.5352 249.536 50.4894C246.775 45.4436 240.442 43.5891 235.392 46.3474C230.341 49.1057 228.485 55.4323 231.246 60.4781C234.007 65.524 240.339 67.3784 245.39 64.62Z" fill="#FFB7B7"/>
<path d="M225.734 54.6965H240.783L240.937 52.5379L241.709 54.6965H244.026L244.332 50.4182L245.861 54.6965H250.345V54.4845C250.342 51.5061 249.156 48.6505 247.048 46.5444C244.94 44.4383 242.082 43.2536 239.1 43.2502H236.979C233.997 43.2536 231.139 44.4383 229.031 46.5444C226.923 48.6505 225.737 51.506 225.734 54.4845V54.6965Z" fill="#2F2E41"/>
<path d="M248.072 62.4554L254.494 60.3735V44.7922H242.363L242.664 45.0918C246.842 49.261 251.489 64.0527 248.072 62.4554Z" fill="#2F2E41"/>
</g>
<defs>
<clipPath id="clip0_1_621">
<rect width="321" height="244" fill="white"/>
</clipPath>
</defs>
</svg>
