<svg width="16" height="14" viewBox="0 0 16 14" fill="none" xmlns="http://www.w3.org/2000/svg">
<path d="M15.7672 2.39141C15.6932 2.31587 15.6051 2.25596 15.508 2.21518C15.4109 2.1744 15.3068 2.15355 15.2016 2.15385H14.637V0.807692C14.6368 0.593553 14.5526 0.388253 14.4029 0.236833C14.2533 0.0854137 14.0503 0.000240501 13.8387 0H2.34948C1.72636 8.92533e-06 1.12877 0.250431 0.688156 0.696179C0.247545 1.14193 8.82247e-06 1.74649 0 2.37687V11.6231C8.82247e-06 12.2535 0.247545 12.8581 0.688156 13.3038C1.12877 13.7496 1.72636 14 2.34948 14H15.1702C15.3814 13.9996 15.5838 13.9147 15.7334 13.7639C15.8829 13.6131 15.9675 13.4085 15.9686 13.1949L16 2.9643C16.0006 2.85796 15.9804 2.75255 15.9404 2.6542C15.9005 2.55585 15.8416 2.46652 15.7672 2.39141V2.39141ZM14.9049 12.9231H2.34948C2.00868 12.9231 1.68185 12.7861 1.44087 12.5423C1.19989 12.2985 1.06451 11.9679 1.06451 11.6231V2.37687C1.06451 2.0321 1.19989 1.70146 1.44087 1.45767C1.68185 1.21388 2.00868 1.07692 2.34948 1.07692H13.5725V2.15385H2.39515V3.23077H14.9347L14.9049 12.9231Z" fill="white"/>
</svg>
