<svg width="16" height="16" viewBox="0 0 16 16" fill="none" xmlns="http://www.w3.org/2000/svg">
<path d="M8.00004 1.33337C4.32404 1.33337 1.33337 4.32404 1.33337 8.00004C1.33337 11.676 4.32404 14.6667 8.00004 14.6667C11.676 14.6667 14.6667 11.676 14.6667 8.00004C14.6667 4.32404 11.676 1.33337 8.00004 1.33337ZM8.00004 13.3334C5.05937 13.3334 2.66671 10.9407 2.66671 8.00004C2.66671 5.05937 5.05937 2.66671 8.00004 2.66671C10.9407 2.66671 13.3334 5.05937 13.3334 8.00004C13.3334 10.9407 10.9407 13.3334 8.00004 13.3334Z" fill="black"/>
<path d="M8.66671 4.66663H7.33337V8.27596L9.52871 10.4713L10.4714 9.52863L8.66671 7.72396V4.66663Z" fill="black"/>
</svg>
